<?xml version="1.0" encoding="utf-8"?>
<!-- Generator: Adobe Illustrator 23.0.3, SVG Export Plug-In . SVG Version: 6.00 Build 0)  -->
<svg version="1.1" id="Layer_1" xmlns="http://www.w3.org/2000/svg" xmlns:xlink="http://www.w3.org/1999/xlink" x="0px" y="0px"
	 viewBox="0 0 552 205" style="enable-background:new 0 0 552 205;" xml:space="preserve">
<style type="text/css">
	.st0{fill:#FFFFFF;}
	.st1{fill:#F9AB00;}
	.st2{fill:#9AAF51;}
</style>
<g>
	<g>
		<g>
			<g>
				<g>
					<path class="st0" d="M69.32,120.23V95.74c0-2.96,0.42-5.52,1.28-7.83c0.84-2.27,2.02-4.29,3.5-6c0.93-1.08,1.96-2.05,3.05-2.9
						c0.15-3.83,0.83-7.17,2.07-10.15c1.52-3.67,3.7-6.74,6.49-9.11c2.67-2.28,5.78-3.92,9.23-4.87c2.79-0.77,5.73-1.16,8.73-1.16
						c3,0,5.94,0.39,8.73,1.16c3.45,0.95,6.55,2.59,9.23,4.86c0.95,0.81,1.83,1.7,2.64,2.67c0.61-0.73,1.23-1.37,1.82-1.93
						c4.78-4.49,11.16-6.77,18.95-6.77c7.83,0,13.3,2.61,16.87,5.32c2.27-2.89,5.81-4.72,9.85-4.72h8.06c1.54,0,3,0.26,4.35,0.75
						c3.37-0.9,6.91-1.35,10.51-1.35c8.46,0,15.3,2.35,20.34,6.99c0.78,0.72,1.51,1.48,2.17,2.3c1.12-1.44,2.39-2.71,3.8-3.82
						c2.65-2.09,5.7-3.58,9.07-4.43c2.7-0.68,5.53-1.03,8.4-1.03c3,0,5.94,0.39,8.73,1.16c3.45,0.95,6.55,2.59,9.23,4.86
						c2.79,2.38,4.97,5.44,6.49,9.11c1.41,3.42,2.1,7.28,2.1,11.82c0,4.22-0.67,8.02-2,11.3c-1.46,3.61-3.59,6.64-6.32,9.01
						c-2.66,2.3-5.79,3.95-9.3,4.9c-2.8,0.76-5.8,1.15-8.93,1.15c-3.51,0-6.85-0.47-9.93-1.41c-0.5-0.15-0.98-0.32-1.46-0.5
						c-0.48,0.18-0.96,0.33-1.45,0.47c-1.7,0.49-3.41,0.79-5.1,0.88c-1,0.06-1.94,0.08-2.78,0.08c-3.17,0-6.1-0.49-8.74-1.44
						c-0.11,0.04-0.23,0.07-0.35,0.11c-2.98,0.9-6.51,1.34-10.77,1.34h-12.86c-0.79,0-1.61-0.01-2.48-0.04
						c-1.11-0.03-2.22-0.12-3.29-0.27c-0.45-0.06-0.89-0.13-1.33-0.22c-0.26,0.05-0.52,0.1-0.78,0.14c-1.59,0.25-3.4,0.38-5.52,0.38
						h-6.75l-0.1-0.01c-0.81-0.02-1.62-0.06-2.41-0.12c-1.8-0.14-3.58-0.5-5.28-1.07c-0.23-0.08-0.46-0.16-0.69-0.24
						c-0.38,0.14-0.76,0.27-1.14,0.4c-3.18,1.01-6.62,1.52-10.22,1.52c-3.51,0-6.85-0.47-9.93-1.41c-0.49-0.15-0.97-0.31-1.44-0.49
						c-0.44,0.15-0.88,0.29-1.33,0.42c-1.58,0.45-3.21,0.74-4.83,0.87c-1.18,0.09-2.22,0.14-3.2,0.14c-1.1,0-2.24-0.05-3.38-0.14
						c-1.82-0.15-3.59-0.52-5.3-1.1c-0.2-0.07-0.4-0.14-0.6-0.22c-0.38,0.14-0.77,0.28-1.16,0.4c-3.18,1.01-6.62,1.52-10.22,1.52
						c-0.42,0-0.83-0.01-1.24-0.02v13.22H69.32z M244.77,80.14L244.77,80.14z"/>
				</g>
				<g>
					<path class="st0" d="M302.3,75.71c-7,0-12.49-5.49-12.49-12.49v-6.53c0-7,5.49-12.49,12.49-12.49h6.73
						c7,0,12.49,5.49,12.49,12.49v6.53c0,7-5.49,12.49-12.49,12.49H302.3z"/>
				</g>
				<g>
					<path class="st0" d="M292.04,75.71c-7,0-12.49-5.49-12.49-12.49v-6.53c0-7,5.49-12.49,12.49-12.49h6.66
						c7,0,12.49,5.49,12.49,12.49v6.53c0,7-5.49,12.49-12.49,12.49H292.04z"/>
				</g>
				<g>
					<path class="st0" d="M332.29,106.56c-2.69,0-5.2-0.35-7.49-1.02c-2.38,0.69-5.15,1.02-8.44,1.02h-33.12
						c-7.87,0-12.42-3.27-14.85-6.02c-3.16-3.57-4.77-8.35-4.77-14.2V71.62c0-7,5.49-12.49,12.49-12.49h8.13
						c7,0,12.49,5.49,12.49,12.49v3.24h7.74v-7.5c0-7,5.49-12.49,12.49-12.49h8.13c2.48,0,4.77,0.69,6.7,1.89
						c1.92-1.2,4.21-1.89,6.7-1.89h8.13c7,0,12.49,5.49,12.49,12.49v18.99c0,5.85-1.61,10.63-4.77,14.21
						c-2.43,2.74-6.98,6.01-14.85,6.01H332.29z"/>
				</g>
				<g>
					<path class="st0" d="M338.42,71.78c-7,0-12.49-5.49-12.49-12.49v-6.53c0-7,5.49-12.49,12.49-12.49h8.26
						c7,0,12.49,5.49,12.49,12.49v6.53c0,7-5.49,12.49-12.49,12.49H338.42z"/>
				</g>
				<g>
					<path class="st0" d="M351.68,57.92c-6.85,0-12.22-5.4-12.22-12.29v-3c0-2.67,0.81-5.12,2.2-7.12c0.19-1.11,0.48-2.21,0.87-3.3
						c0.81-2.23,2.02-4.26,3.62-6.04c1.76-1.96,3.95-3.5,6.5-4.56c2.35-0.98,4.99-1.47,7.83-1.47c3.23,0,6.22,0.66,8.89,1.97
						c2.71,1.33,4.93,3.12,6.63,5.33l0.41,0.53l0.35,0.58c1.81,3.02,2.2,6.57,1.27,9.77c0.48,1.33,0.74,2.78,0.74,4.3v3
						c0,6.89-5.37,12.29-12.22,12.29H351.68z"/>
				</g>
				<g>
					<path class="st0" d="M355.28,106.56c-7,0-12.49-5.49-12.49-12.49V50.09c0-7,5.49-12.49,12.49-12.49h8.06
						c7,0,12.49,5.49,12.49,12.49v43.98c0,7-5.49,12.49-12.49,12.49H355.28z"/>
				</g>
				<g>
					<path class="st0" d="M403.59,120.82c-3.42,0-6.73-0.46-9.86-1.37c-3.59-1.04-6.82-2.72-9.6-4.99
						c-2.98-2.43-5.35-5.54-7.01-9.25c-1.6-3.54-2.41-7.61-2.41-12.08c0-3.29,0.47-6.65,1.41-9.97c0.91-3.23,2.2-6.3,3.85-9.15
						l0.18-0.32l0.2-0.31c2.31-3.47,6.2-5.55,10.41-5.55c1.18,0,2.37,0.16,3.54,0.48l0.27,0.07l4.65,1.51V50.09
						c0-7,5.49-12.49,12.49-12.49h8.06c7,0,12.49,5.49,12.49,12.49v3.68c1.94-0.67,3.89-1.23,5.8-1.67
						c3.02-0.7,6.34-1.04,10.17-1.04c5.32,0,9.81,0.77,13.74,2.37c4.17,1.69,7.64,4.09,10.3,7.12c2.61,2.98,4.47,6.38,5.53,10.12
						c0.87,3.08,1.31,6.27,1.31,9.48c0,3.45-0.33,6.48-0.99,9.26c-0.89,3.7-2.51,6.92-4.8,9.56c-2.44,2.8-5.56,4.86-9.27,6.11
						c-2.96,1-6.28,1.49-10.14,1.49h-24.57c-1.55,3.05-3.61,5.67-6.15,7.8c-2.77,2.32-6.02,4.03-9.66,5.09
						C410.39,120.36,407.05,120.82,403.59,120.82z"/>
				</g>
			</g>
		</g>
		<g>
			<g>
				<g>
					<path class="st1" d="M81.14,117.74c-5.16,0-9.33-4.18-9.33-9.33V95.74c0-2.66,0.37-4.93,1.12-6.96
						c0.74-1.99,1.77-3.76,3.05-5.24c1.09-1.26,2.31-2.34,3.63-3.23c0.04-4.05,0.66-7.49,1.91-10.5c1.37-3.3,3.32-6.05,5.8-8.17
						c2.39-2.04,5.18-3.51,8.28-4.36c2.57-0.71,5.29-1.07,8.07-1.07c2.78,0,5.5,0.36,8.07,1.07c3.09,0.85,5.88,2.32,8.27,4.36
						c1.66,1.42,3.08,3.11,4.25,5.07c1.11-1.86,2.36-3.3,3.53-4.4c4.31-4.04,10.11-6.09,17.25-6.09c6.92,0,12.69,2.12,17.13,6.3
						c0.12,0.12,0.25,0.24,0.37,0.36c1.5-3.6,5.02-6.06,9.22-6.06h8.06c1.5,0,2.92,0.32,4.19,0.89c0.24-0.07,0.48-0.13,0.72-0.2
						c3.19-0.85,6.53-1.29,9.95-1.29c7.81,0,14.08,2.13,18.65,6.33c1.55,1.43,2.86,3.07,3.91,4.92c1.37-2.52,3.14-4.64,5.29-6.32
						c2.38-1.87,5.12-3.21,8.14-3.98c2.5-0.63,5.12-0.95,7.79-0.95c2.78,0,5.5,0.36,8.07,1.07c3.1,0.85,5.88,2.32,8.28,4.36
						c2.49,2.12,4.44,4.87,5.81,8.17c1.28,3.11,1.91,6.66,1.91,10.87c0,3.9-0.61,7.39-1.81,10.36c-1.31,3.24-3.21,5.95-5.64,8.06
						c-2.38,2.05-5.18,3.53-8.33,4.38c-2.59,0.7-5.37,1.06-8.27,1.06c-3.26,0-6.36-0.44-9.21-1.3c-0.75-0.23-1.47-0.49-2.17-0.79
						c-0.71,0.3-1.43,0.55-2.16,0.76c-1.52,0.44-3.05,0.7-4.54,0.79c-0.95,0.05-1.85,0.08-2.64,0.08c-3.09,0-5.92-0.5-8.41-1.49
						c-0.09-0.04-0.18-0.07-0.28-0.11c-0.36,0.14-0.73,0.26-1.11,0.38c-2.75,0.83-6.04,1.23-10.06,1.23h-12.86
						c-0.76,0-1.56-0.01-2.4-0.04c-1.03-0.03-2.06-0.11-3.04-0.24c-0.57-0.08-1.13-0.17-1.68-0.29c-0.38,0.09-0.76,0.17-1.15,0.23
						c-1.46,0.23-3.14,0.35-5.13,0.35h-5.93c-0.08,0-0.16,0-0.24,0c-0.97-0.01-1.94-0.05-2.89-0.13c-1.6-0.13-3.18-0.45-4.69-0.95
						c-0.5-0.17-0.99-0.35-1.47-0.56c-0.62,0.26-1.25,0.5-1.9,0.71c-2.94,0.93-6.12,1.41-9.46,1.41c-3.26,0-6.36-0.44-9.21-1.3
						c-0.73-0.22-1.45-0.48-2.14-0.77c-0.66,0.27-1.34,0.5-2.02,0.7c-1.43,0.4-2.9,0.67-4.35,0.79c-1.11,0.09-2.09,0.13-3,0.13
						c-1.04,0-2.11-0.04-3.18-0.13c-1.61-0.13-3.18-0.46-4.69-0.98c-0.47-0.16-0.94-0.35-1.4-0.55c-0.62,0.27-1.27,0.51-1.93,0.72
						c-2.94,0.93-6.12,1.41-9.46,1.41c-1.27,0-2.52-0.07-3.73-0.22v4.08c0,5.16-4.18,9.33-9.33,9.33H81.14z M242.3,79.8L242.3,79.8z
						 M234.57,79.78L234.57,79.78z"/>
				</g>
				<g>
					<path class="st1" d="M302.3,73.22c-5.61,0-10-4.39-10-10v-6.53c0-5.61,4.39-10,10-10h6.73c5.61,0,10,4.39,10,10v6.53
						c0,5.61-4.39,10-10,10H302.3z"/>
				</g>
				<g>
					<path class="st1" d="M292.04,73.22c-5.61,0-10-4.39-10-10v-6.53c0-5.61,4.39-10,10-10h6.66c5.61,0,10,4.39,10,10v6.53
						c0,5.61-4.39,10-10,10H292.04z"/>
				</g>
				<g>
					<path class="st1" d="M332.29,104.08c-2.61,0-5.03-0.35-7.19-1.05c-0.09-0.03-0.19-0.06-0.29-0.1
						c-2.29,0.77-5.06,1.15-8.45,1.15h-33.12c-6.94,0-10.9-2.82-12.99-5.18c-2.75-3.11-4.14-7.33-4.14-12.55V71.62
						c0-5.61,4.39-10,10-10h8.13c5.61,0,10,4.39,10,10v5.73h12.72v-9.99c0-5.61,4.39-10,10-10h8.13c2.6,0,4.94,0.94,6.7,2.51
						c1.76-1.57,4.1-2.51,6.7-2.51h8.13c5.61,0,10,4.39,10,10v18.99c0,5.22-1.4,9.45-4.15,12.56c-2.09,2.36-6.04,5.18-12.98,5.18
						H332.29z"/>
				</g>
				<g>
					<path class="st1" d="M338.42,69.29c-5.61,0-10-4.39-10-10v-6.53c0-5.61,4.39-10,10-10h8.26c5.61,0,10,4.39,10,10v6.53
						c0,5.61-4.39,10-10,10H338.42z"/>
				</g>
				<g>
					<path class="st1" d="M351.68,55.43c-5.46,0-9.73-4.31-9.73-9.8v-3c0-2.33,0.77-4.45,2.07-6.12c0.16-1.17,0.44-2.32,0.85-3.45
						c0.7-1.93,1.75-3.69,3.13-5.23c1.51-1.68,3.4-3.01,5.61-3.92c2.05-0.85,4.36-1.28,6.87-1.28c2.84,0,5.47,0.58,7.79,1.71
						c2.35,1.15,4.29,2.7,5.75,4.61c0.22,0.28,0.42,0.57,0.6,0.88c1.6,2.67,1.81,5.83,0.75,8.59c0.59,1.27,0.91,2.69,0.91,4.21v3
						c0,5.5-4.28,9.8-9.73,9.8H351.68z"/>
				</g>
				<g>
					<path class="st1" d="M355.28,104.08c-5.61,0-10-4.39-10-10V50.09c0-5.61,4.39-10,10-10h8.06c5.61,0,10,4.39,10,10v43.98
						c0,5.61-4.39,10-10,10H355.28z"/>
				</g>
				<g>
					<path class="st1" d="M403.59,118.33c-3.18,0-6.26-0.43-9.17-1.27c-3.27-0.95-6.2-2.47-8.72-4.53
						c-2.68-2.18-4.81-4.99-6.32-8.34c-1.45-3.22-2.19-6.94-2.19-11.06c0-3.06,0.44-6.19,1.32-9.29c0.85-3.03,2.06-5.91,3.6-8.57
						c0.1-0.17,0.2-0.33,0.31-0.49c1.85-2.78,4.96-4.44,8.34-4.44c0.96,0,1.93,0.13,2.89,0.4c0.14,0.04,0.28,0.08,0.42,0.13
						l7.2,2.33c0.15,0.05,0.3,0.1,0.45,0.16V50.09c0-5.61,4.39-10,10-10h8.06c5.61,0,10,4.39,10,10v7.35
						c0.27-0.15,0.55-0.28,0.84-0.4c0.1-0.04,0.21-0.09,0.31-0.13c2.58-1,5.17-1.8,7.7-2.39c2.83-0.66,5.97-0.97,9.6-0.97
						c4.99,0,9.18,0.71,12.8,2.18c3.81,1.54,6.96,3.72,9.37,6.45c2.37,2.7,4.05,5.78,5,9.16c0.81,2.86,1.22,5.82,1.22,8.8
						c0,3.25-0.3,6.09-0.92,8.68c-0.8,3.31-2.23,6.17-4.26,8.51c-2.15,2.46-4.9,4.27-8.19,5.39c-2.7,0.91-5.76,1.36-9.35,1.36
						h-26.15c-0.02,0.04-0.03,0.07-0.05,0.11c-1.44,3.3-3.5,6.08-6.12,8.27c-2.5,2.1-5.45,3.65-8.75,4.61
						C409.92,117.91,406.81,118.33,403.59,118.33z"/>
				</g>
			</g>
		</g>
		<g>
			<path class="st0" d="M248.76,68.75c-1.36-1.15-2.92-1.98-4.7-2.47c-1.78-0.49-3.64-0.73-5.6-0.73c-1.91,0-3.74,0.22-5.5,0.67
				c-1.76,0.44-3.31,1.2-4.66,2.27c-1.36,1.07-2.44,2.49-3.27,4.26c-0.82,1.78-1.23,3.98-1.23,6.6v1.33
				c-0.09,2.31-0.56,3.89-1.4,4.73c-0.84,0.84-1.76,1.27-2.73,1.27h-1.93h0h-1.47c-1.56,0-2.78-0.32-3.66-0.97
				c-0.89-0.64-1.38-1.5-1.47-2.57c0.04-0.22,0.07-0.47,0.07-0.73c0-0.27,0-0.53,0-0.8c0-5.55-1.4-9.62-4.2-12.19
				c-2.8-2.58-6.91-3.86-12.33-3.86c-2.62,0-5.13,0.32-7.53,0.97c-2.4,0.64-4.62,1.41-6.66,2.3v-2c0-0.44-0.22-0.67-0.67-0.67h-8.06
				c-0.44,0-0.67,0.22-0.67,0.67v14.13c0,0.84-0.02,1.62-0.07,2.33c-0.04,0.71-0.14,1.31-0.3,1.8c-0.16,0.49-0.42,0.88-0.8,1.17
				c-0.38,0.29-0.9,0.43-1.57,0.43h-2.6h-0.07h-1.87c-1.16,0-2.11-0.34-2.87-1.03c-0.76-0.69-1.18-1.77-1.27-3.23
				c0-0.27,0.01-0.54,0.03-0.83c0.02-0.29,0.03-0.59,0.03-0.9c0-5.06-1.33-8.85-4-11.36c-2.66-2.51-6.24-3.76-10.73-3.76
				c-4.71,0-8.33,1.19-10.86,3.56c-2.53,2.38-3.8,5.79-3.8,10.23v1.33c-0.09,2.31-0.54,3.89-1.37,4.73
				c-0.82,0.84-1.74,1.27-2.77,1.27h-1.93h0h-1.87c-1.16,0-2.11-0.34-2.87-1.03c-0.76-0.69-1.18-1.77-1.27-3.23
				c0-0.27,0.01-0.54,0.03-0.83c0.02-0.29,0.03-0.59,0.03-0.9c0-2.93-0.4-5.36-1.2-7.3c-0.8-1.93-1.88-3.48-3.23-4.63
				c-1.36-1.15-2.92-1.98-4.7-2.47c-1.78-0.49-3.64-0.73-5.6-0.73c-1.96,0-3.82,0.24-5.6,0.73c-1.78,0.49-3.34,1.31-4.7,2.47
				c-1.36,1.16-2.43,2.7-3.23,4.63c-0.8,1.93-1.2,4.36-1.2,7.3c0,0.49,0,0.96,0,1.4c0,0.44,0.02,0.87,0.07,1.27
				c-0.09,0.84-0.34,1.52-0.77,2.03c-0.42,0.51-0.93,0.98-1.53,1.4c-0.6,0.42-1.22,0.84-1.87,1.27c-0.64,0.42-1.24,0.96-1.8,1.6
				c-0.56,0.64-1.01,1.44-1.37,2.4c-0.36,0.96-0.53,2.19-0.53,3.7v12.66h9.46V97.14c0-0.8,0.11-1.43,0.33-1.9
				c0.22-0.47,0.5-0.87,0.83-1.2c0.33-0.33,0.68-0.63,1.03-0.9c0.35-0.27,0.69-0.64,1-1.13c1.24,1.16,2.7,1.98,4.36,2.47
				c1.67,0.49,3.5,0.73,5.5,0.73c2.4,0,4.61-0.32,6.63-0.97c2.02-0.64,3.7-1.77,5.03-3.37c0.58,0.89,1.22,1.59,1.93,2.1
				c0.71,0.51,1.45,0.9,2.23,1.17c0.78,0.27,1.58,0.43,2.4,0.5c0.82,0.07,1.63,0.1,2.43,0.1c0,0,0,0,0,0s0,0,0,0c0,0,0,0,0,0
				c0,0,0,0,0,0c0.67,0,1.42-0.03,2.26-0.1c0.84-0.07,1.7-0.22,2.57-0.47c0.87-0.24,1.7-0.61,2.5-1.1c0.8-0.49,1.44-1.13,1.93-1.93
				c1.33,1.51,2.99,2.57,4.96,3.17c1.98,0.6,4.14,0.9,6.5,0.9c2.4,0,4.61-0.32,6.63-0.97c2.02-0.64,3.7-1.77,5.03-3.37
				c0.53,0.89,1.15,1.59,1.87,2.1c0.71,0.51,1.47,0.9,2.27,1.17c0.8,0.27,1.62,0.43,2.47,0.5c0.81,0.06,1.6,0.1,2.38,0.1
				c0.01,0,0.01,0,0.02,0h5.93c1.47,0,2.69-0.08,3.66-0.23c0.98-0.15,1.84-0.54,2.6-1.17c0.22,0.36,0.6,0.62,1.13,0.8
				c0.53,0.18,1.13,0.31,1.8,0.4c0.67,0.09,1.37,0.14,2.1,0.17c0.73,0.02,1.43,0.03,2.1,0.03h12.86c3.06,0,5.52-0.28,7.36-0.83
				c1.84-0.55,3.25-1.68,4.23-3.37c0.8,1.69,1.9,2.81,3.3,3.37c1.4,0.56,3.05,0.83,4.96,0.83c0,0,0,0,0,0c0,0,0,0,0,0c0,0,0,0,0,0
				c0,0,0,0,0,0c0.62,0,1.33-0.02,2.13-0.07c0.8-0.04,1.62-0.19,2.47-0.43c0.84-0.24,1.68-0.6,2.5-1.07
				c0.82-0.47,1.54-1.14,2.17-2.03c1.33,1.51,2.99,2.57,4.96,3.17c1.98,0.6,4.14,0.9,6.5,0.9c2.09,0,4.03-0.24,5.83-0.73
				c1.8-0.49,3.35-1.3,4.66-2.43c1.31-1.13,2.34-2.63,3.1-4.5c0.75-1.87,1.13-4.15,1.13-6.86c0-2.93-0.4-5.36-1.2-7.3
				C251.2,71.45,250.12,69.91,248.76,68.75z M107.8,85.64c-0.89,1-2.27,1.5-4.13,1.5c-1.82,0-3.19-0.5-4.1-1.5
				c-0.91-1-1.37-2.77-1.37-5.3c0-4.49,1.82-6.73,5.46-6.73c3.64,0,5.46,2.24,5.46,6.73C109.13,82.88,108.69,84.64,107.8,85.64z
				 M149.18,85.64c-0.89,1-2.27,1.5-4.13,1.5c-1.82,0-3.19-0.5-4.1-1.5c-0.91-1-1.37-2.77-1.37-5.3c0-4.49,1.82-6.73,5.46-6.73
				c3.64,0,5.46,2.24,5.46,6.73C150.51,82.88,150.07,84.64,149.18,85.64z M201.19,84.21c-0.2,0.76-0.59,1.31-1.17,1.67
				c-0.58,0.36-1.39,0.58-2.43,0.67c-1.04,0.09-2.39,0.13-4.03,0.13h-13.19c0.04-0.4,0.08-0.81,0.1-1.23
				c0.02-0.42,0.03-0.88,0.03-1.37v-7.46c1.73-0.75,3.67-1.44,5.83-2.07c2.15-0.62,4.34-0.93,6.56-0.93c1.69,0,3.09,0.16,4.2,0.47
				c1.11,0.31,1.99,0.79,2.63,1.43c0.64,0.64,1.1,1.43,1.37,2.37c0.27,0.93,0.4,2,0.4,3.2C201.49,82.41,201.39,83.46,201.19,84.21z
				 M242.6,85.64c-0.89,1-2.27,1.5-4.13,1.5c-1.82,0-3.2-0.5-4.13-1.5c-0.93-1-1.4-2.77-1.4-5.3c0-4.49,1.84-6.73,5.53-6.73
				c3.64,0,5.46,2.24,5.46,6.73C243.93,82.88,243.49,84.64,242.6,85.64z"/>
			<path class="st0" d="M302.31,63.89h6.73c0.44,0,0.67-0.22,0.67-0.67v-6.53c0-0.44-0.22-0.67-0.67-0.67h-6.73
				c-0.44,0-0.67,0.22-0.67,0.67v6.53C301.64,63.67,301.86,63.89,302.31,63.89z"/>
			<path class="st0" d="M292.04,63.89h6.66c0.44,0,0.67-0.22,0.67-0.67v-6.53c0-0.44-0.22-0.67-0.67-0.67h-6.66
				c-0.44,0-0.67,0.22-0.67,0.67v6.53C291.38,63.67,291.6,63.89,292.04,63.89z"/>
			<path class="st0" d="M346.62,66.69h-8.13c-0.44,0-0.67,0.22-0.67,0.67v15.79c0,1.33-0.26,2.26-0.77,2.77
				c-0.51,0.51-1.32,0.77-2.43,0.77h-2.33h0h-1.46c-1.56,0-2.77-0.31-3.63-0.93c-0.87-0.62-1.34-1.47-1.43-2.53V67.35
				c0-0.44-0.22-0.67-0.67-0.67h-8.13c-0.44,0-0.67,0.22-0.67,0.67v14.33c0,1.91-0.19,3.22-0.57,3.93c-0.38,0.71-1.28,1.07-2.7,1.07
				h-24.92c-1.11,0-1.92-0.26-2.43-0.77c-0.51-0.51-0.77-1.43-0.77-2.77V71.62c0-0.44-0.22-0.67-0.67-0.67h-8.13
				c-0.44,0-0.67,0.22-0.67,0.67v14.73c0,2.89,0.6,5.01,1.8,6.36c1.2,1.36,3.2,2.03,6,2.03h33.12c2.35,0,4.19-0.22,5.5-0.67
				c1.31-0.44,2.3-1.33,2.97-2.67c0.84,1.42,1.89,2.33,3.13,2.73c1.24,0.4,2.69,0.6,4.33,0.6c0,0,0,0,0,0h7.2c2.8,0,4.8-0.68,6-2.03
				c1.2-1.35,1.8-3.48,1.8-6.36V67.35C347.28,66.91,347.06,66.69,346.62,66.69z"/>
			<path class="st0" d="M346.68,52.09h-8.26c-0.44,0-0.67,0.22-0.67,0.67v6.53c0,0.44,0.22,0.67,0.67,0.67h8.26
				c0.44,0,0.67-0.22,0.67-0.67v-6.53C347.35,52.32,347.13,52.09,346.68,52.09z"/>
			<path class="st0" d="M366.54,42.16h-6.66c-0.49-0.31-0.94-0.75-1.37-1.33c-0.42-0.58-0.63-1.27-0.63-2.07
				c0-0.89,0.27-1.6,0.8-2.13c0.53-0.53,1.22-0.8,2.07-0.8c1.15,0,2.2,0.51,3.13,1.53c0.22,0.22,0.44,0.2,0.67-0.07l2-2.07
				c0.18-0.18,0.2-0.38,0.07-0.6c-0.58-0.75-1.39-1.39-2.43-1.9c-1.04-0.51-2.28-0.77-3.7-0.77c-1.29,0-2.39,0.19-3.3,0.57
				c-0.91,0.38-1.66,0.89-2.23,1.53c-0.58,0.64-1.01,1.37-1.3,2.17c-0.29,0.8-0.43,1.6-0.43,2.4c0,0.71,0.09,1.36,0.27,1.93
				c0.18,0.58,0.4,1.11,0.67,1.6h-2.47c-0.27,0-0.4,0.16-0.4,0.47v3c0,0.31,0.13,0.47,0.4,0.47h14.86c0.27,0,0.4-0.16,0.4-0.47v-3
				C366.94,42.32,366.81,42.16,366.54,42.16z"/>
			<path class="st0" d="M363.34,49.43h-8.06c-0.44,0-0.67,0.22-0.67,0.67v43.98c0,0.44,0.22,0.67,0.67,0.67h8.06
				c0.44,0,0.67-0.22,0.67-0.67V50.09C364.01,49.65,363.79,49.43,363.34,49.43z"/>
			<path class="st0" d="M466.43,73.88c-0.58-2.04-1.59-3.89-3.03-5.53c-1.44-1.64-3.4-2.97-5.86-3.96c-2.47-1-5.56-1.5-9.3-1.5
				c-2.89,0-5.39,0.24-7.5,0.73c-2.11,0.49-4.25,1.16-6.43,2c-0.31,0.13-0.48,0.3-0.5,0.5c-0.02,0.2,0.01,0.43,0.1,0.7l1.4,5
				c0.09,0.27,0.27,0.38,0.53,0.33c0.27-0.04,0.49-0.11,0.67-0.2c1.6-0.49,3.23-0.86,4.9-1.1c1.67-0.24,3.25-0.37,4.76-0.37
				c1.69,0,3.23,0.19,4.63,0.57c1.4,0.38,2.6,0.97,3.6,1.77c1,0.8,1.78,1.82,2.33,3.07c0.55,1.24,0.83,2.73,0.83,4.46
				c0,1.78-0.33,3.28-1,4.5c-0.67,1.22-2,1.83-4,1.83c0.31-0.62,0.59-1.32,0.83-2.1c0.24-0.78,0.37-1.63,0.37-2.57
				c0-3.51-0.96-6.07-2.86-7.7c-1.91-1.62-4.53-2.43-7.86-2.43c-1.33,0-2.62,0.19-3.86,0.57c-1.24,0.38-2.34,0.97-3.3,1.77
				c-0.96,0.8-1.73,1.84-2.33,3.13c-0.6,1.29-0.9,2.84-0.9,4.66c0,1.78,0.31,3.33,0.93,4.66h-6.53h0h-1.53
				c-1.56,0-2.77-0.32-3.63-0.97c-0.87-0.64-1.34-1.52-1.43-2.63V50.09c0-0.44-0.22-0.67-0.67-0.67h-8.06
				c-0.44,0-0.67,0.22-0.67,0.67v42.78c0,2.71-0.64,4.71-1.93,6c-1.29,1.29-3.07,1.93-5.33,1.93c-0.93,0-1.86-0.14-2.77-0.43
				c-0.91-0.29-1.73-0.77-2.47-1.43c-0.73-0.67-1.32-1.53-1.77-2.6c-0.44-1.07-0.67-2.38-0.67-3.93c0-1.95,0.27-3.71,0.8-5.26
				c0.53-1.55,1.11-2.95,1.73-4.2c0.09-0.18,0.12-0.34,0.1-0.5c-0.02-0.15-0.14-0.28-0.37-0.37l-7.2-2.33
				c-0.49-0.13-0.82-0.07-1,0.2c-1.16,2-2.06,4.14-2.7,6.43c-0.64,2.29-0.97,4.54-0.97,6.76c0,2.8,0.46,5.21,1.37,7.23
				c0.91,2.02,2.14,3.67,3.7,4.93c1.55,1.27,3.37,2.2,5.43,2.8c2.07,0.6,4.25,0.9,6.56,0.9c2.35,0,4.56-0.3,6.63-0.9
				c2.07-0.6,3.85-1.53,5.36-2.8c1.51-1.27,2.7-2.89,3.56-4.86c0.87-1.98,1.3-4.36,1.3-7.16v-0.6c0.84,0.89,1.8,1.46,2.86,1.7
				c1.07,0.24,2.31,0.37,3.73,0.37c0,0,0,0,0,0h26.85c2.53,0,4.65-0.29,6.36-0.87c1.71-0.58,3.09-1.47,4.13-2.67
				c1.04-1.2,1.79-2.72,2.23-4.56c0.44-1.84,0.67-4.01,0.67-6.5C467.29,78.01,467,75.93,466.43,73.88z M446.04,85.71
				c-0.58,0.73-1.44,1.14-2.6,1.23h-0.73c-1.11-0.09-1.98-0.5-2.6-1.23c-0.62-0.73-0.93-1.88-0.93-3.43c0-1.51,0.34-2.68,1.03-3.5
				c0.69-0.82,1.65-1.23,2.9-1.23c1.24,0,2.19,0.41,2.83,1.23c0.64,0.82,0.97,1.99,0.97,3.5C446.9,83.84,446.61,84.98,446.04,85.71z
				"/>
		</g>
	</g>
	<g>
		<path class="st2" d="M103.83,138h-4.79c-0.26,0-0.39,0.13-0.39,0.39v19.48c0,0.79-0.15,1.33-0.45,1.63
			c-0.3,0.3-0.78,0.45-1.43,0.45h-1.34h-0.04h-0.86c-0.94,0-1.66-0.18-2.16-0.55c-0.5-0.37-0.77-0.89-0.82-1.57v-19.44
			c0-0.26-0.13-0.39-0.39-0.39h-4.79c-0.26,0-0.39,0.13-0.39,0.39v17.99c0,0.58-0.01,1.09-0.04,1.53c-0.03,0.45-0.1,0.82-0.22,1.12
			c-0.12,0.3-0.31,0.53-0.57,0.69c-0.26,0.16-0.62,0.24-1.06,0.24H82.7h-0.86c-0.92,0-1.64-0.18-2.18-0.53
			c-0.54-0.35-0.81-0.84-0.81-1.47v-2.87c0-1.44-0.2-2.62-0.59-3.54c-0.39-0.92-0.95-1.64-1.67-2.18c-0.72-0.54-1.59-0.91-2.61-1.12
			c-1.02-0.21-2.17-0.34-3.46-0.39l5.89-6.83c0.1-0.21,0.05-0.39-0.16-0.55L73,137.72c-0.18-0.1-0.35-0.06-0.51,0.12l-8.41,9.94
			c-0.13,0.16-0.29,0.34-0.49,0.55c-0.2,0.21-0.29,0.41-0.29,0.59v3.22c0,0.26,0.13,0.39,0.39,0.39h5.89c1.23,0,2.13,0.24,2.69,0.71
			c0.56,0.47,0.84,1.23,0.84,2.28v1.81c0,0.52-0.03,0.96-0.1,1.3c-0.07,0.34-0.2,0.61-0.41,0.81c-0.21,0.2-0.51,0.33-0.9,0.41
			c-0.39,0.08-0.9,0.12-1.53,0.12h-8.8h-0.9c-0.92,0-1.63-0.19-2.14-0.57c-0.51-0.38-0.79-0.9-0.84-1.55v-19.44
			c0-0.26-0.13-0.39-0.39-0.39h-4.75c-0.26,0-0.39,0.13-0.39,0.39v25.22c0,1.6-0.38,2.78-1.14,3.54c-0.76,0.76-1.81,1.14-3.14,1.14
			c-0.55,0-1.09-0.09-1.63-0.26c-0.54-0.17-1.02-0.45-1.45-0.84c-0.43-0.39-0.78-0.9-1.04-1.53s-0.39-1.4-0.39-2.32
			c0-1.15,0.16-2.19,0.47-3.1c0.31-0.92,0.65-1.74,1.02-2.48c0.05-0.1,0.07-0.2,0.06-0.29c-0.01-0.09-0.09-0.16-0.22-0.22
			l-4.24-1.38c-0.29-0.08-0.49-0.04-0.59,0.12c-0.68,1.18-1.21,2.44-1.59,3.79c-0.38,1.35-0.57,2.68-0.57,3.99
			c0,1.65,0.27,3.07,0.81,4.26c0.54,1.19,1.26,2.16,2.18,2.91c0.92,0.75,1.98,1.3,3.2,1.65c1.22,0.35,2.51,0.53,3.87,0.53
			c1.39,0,2.69-0.18,3.91-0.53c1.22-0.35,2.27-0.9,3.16-1.65c0.89-0.75,1.59-1.7,2.1-2.87c0.51-1.17,0.77-2.57,0.77-4.22v-0.35
			c0.5,0.52,1.06,0.86,1.69,1s1.36,0.22,2.2,0.22h11.55c1.2,0,2.23-0.16,3.06-0.49c0.84-0.33,1.49-0.91,1.96-1.75
			c0.5,0.92,1.14,1.52,1.93,1.81c0.79,0.29,1.73,0.43,2.83,0.43h3.54c1.28,0,2.3-0.14,3.04-0.41c0.75-0.27,1.32-0.79,1.71-1.55
			c0.5,0.84,1.11,1.38,1.85,1.61c0.7,0.23,1.54,0.34,2.48,0.35c0.03,0,0.04,0.01,0.07,0.01h4.24c1.65,0,2.83-0.4,3.54-1.2
			c0.71-0.8,1.06-2.05,1.06-3.75v-21.37C104.23,138.13,104.09,138,103.83,138z"/>
		<path class="st2" d="M129.13,153.4h4.91c0.79,0,1.38-0.19,1.77-0.57c0.39-0.38,0.59-1.08,0.59-2.1v-0.82c0-1-0.2-1.74-0.59-2.24
			c-0.39-0.5-1.06-0.75-2-0.75h-0.67l1.81-2.16c0.1-0.16,0.12-0.31,0.06-0.45s-0.17-0.29-0.31-0.43c-0.14-0.14-0.31-0.28-0.49-0.41
			c-0.18-0.13-0.34-0.25-0.47-0.35c-0.05-0.05-0.14-0.08-0.26-0.1c-0.12-0.01-0.24,0.05-0.37,0.18l-2.91,3.46
			c-0.05,0.08-0.13,0.17-0.24,0.28c-0.1,0.1-0.16,0.25-0.16,0.43v1.18c0,0.37,0.18,0.55,0.55,0.55h2.2c0.55,0,0.9,0.07,1.06,0.22
			c0.16,0.14,0.24,0.52,0.24,1.12c0,0.31-0.05,0.53-0.14,0.65c-0.09,0.12-0.32,0.18-0.69,0.18h-3.89c-0.26,0-0.39,0.13-0.39,0.39
			V153C128.74,153.27,128.87,153.4,129.13,153.4z"/>
		<path class="st2" d="M159.69,138h-4.79c-0.26,0-0.39,0.13-0.39,0.39v19.48c0,0.79-0.15,1.33-0.45,1.63
			c-0.3,0.3-0.78,0.45-1.43,0.45h-1.38h-0.86c-0.92,0-1.63-0.19-2.14-0.57c-0.51-0.38-0.79-0.9-0.84-1.55v-19.44
			c0-0.26-0.13-0.39-0.39-0.39h-4.79c-0.26,0-0.39,0.13-0.39,0.39v18.42c0,1.18-0.11,2-0.33,2.46c-0.22,0.46-0.75,0.69-1.59,0.69
			h-13.71c-0.47,0-0.88-0.01-1.24-0.04c-0.35-0.03-0.65-0.11-0.9-0.26c-0.25-0.14-0.43-0.35-0.55-0.63s-0.18-0.66-0.18-1.16v-6.8
			c0-0.26-0.13-0.39-0.39-0.39h-4.79c-0.26,0-0.39,0.13-0.39,0.39v8.68c0,1.7,0.35,2.95,1.06,3.75c0.71,0.8,1.89,1.2,3.54,1.2h19.41
			c1.41,0,2.51-0.13,3.3-0.39c0.79-0.26,1.39-0.79,1.81-1.57c0.5,0.84,1.11,1.38,1.85,1.61c0.73,0.24,1.58,0.35,2.55,0.35h4.24
			c1.65,0,2.83-0.4,3.54-1.2c0.71-0.8,1.06-2.05,1.06-3.75v-21.37C160.09,138.13,159.95,138,159.69,138z"/>
		<path class="st2" d="M216.14,159.96h-8.56c-0.18-0.1-0.41-0.26-0.69-0.45c-0.28-0.2-0.54-0.46-0.81-0.79
			c-0.26-0.33-0.48-0.72-0.67-1.18c-0.18-0.46-0.27-0.99-0.27-1.59c0-1.2,0.33-2.12,0.98-2.75c0.65-0.63,1.5-0.94,2.55-0.94
			c1.44,0,2.74,0.59,3.89,1.77c0.18,0.18,0.38,0.18,0.59,0l2.47-2.95c0.21-0.21,0.24-0.41,0.08-0.59c-0.66-0.79-1.63-1.48-2.91-2.08
			c-1.28-0.6-2.87-0.9-4.75-0.9c-1.49,0-2.79,0.22-3.89,0.67c-1.1,0.45-2,1.03-2.71,1.77c-0.71,0.73-1.23,1.58-1.57,2.53
			c-0.34,0.96-0.51,1.96-0.51,3.01c0,0.97,0.14,1.83,0.41,2.57c0.28,0.75,0.62,1.38,1.04,1.9h-3.1h-0.04h-1.1
			c-0.68,0-1.24-0.2-1.69-0.61c-0.45-0.41-0.69-1.04-0.75-1.9c0-0.16,0.01-0.32,0.02-0.49c0.01-0.17,0.02-0.35,0.02-0.53
			c0-2.99-0.79-5.22-2.36-6.7c-1.57-1.48-3.68-2.22-6.32-2.22c-2.78,0-4.91,0.7-6.4,2.1c-1.49,1.4-2.24,3.41-2.24,6.03v0.79
			c-0.05,1.36-0.32,2.29-0.81,2.79c-0.49,0.5-1.03,0.75-1.63,0.75h-1.14h0h-1.06c-0.65,0-1.13-0.15-1.43-0.45
			c-0.3-0.3-0.45-0.84-0.45-1.63v-19.48c0-0.26-0.13-0.39-0.39-0.39h-4.75c-0.26,0-0.39,0.13-0.39,0.39v21.37
			c0,1.7,0.35,2.95,1.06,3.75c0.71,0.8,1.88,1.2,3.54,1.2h3.89c0,0,0,0,0,0c0.39,0,0.84-0.02,1.33-0.06c0.5-0.04,1-0.13,1.51-0.27
			c0.51-0.14,1-0.36,1.47-0.65c0.47-0.29,0.85-0.67,1.14-1.14c0.79,0.89,1.76,1.51,2.93,1.87s2.44,0.53,3.83,0.53
			c1.41,0,2.72-0.19,3.91-0.57c1.19-0.38,2.18-1.04,2.97-1.98c0.31,0.52,0.68,0.94,1.1,1.24c0.42,0.3,0.86,0.53,1.34,0.69
			c0.47,0.16,0.96,0.26,1.45,0.29c0.47,0.04,0.93,0.05,1.38,0.06c0.01,0,0.02,0,0.03,0h18.46c0.26,0,0.39-0.13,0.39-0.39v-3.97
			C216.53,160.09,216.4,159.96,216.14,159.96z M187.94,159.35c-0.52,0.59-1.34,0.88-2.44,0.88c-1.07,0-1.88-0.29-2.42-0.88
			c-0.54-0.59-0.8-1.63-0.8-3.12c0-2.65,1.07-3.97,3.22-3.97s3.22,1.32,3.22,3.97C188.72,157.72,188.46,158.76,187.94,159.35z"/>
		<path class="st2" d="M225.61,138h-4.75c-0.26,0-0.39,0.13-0.39,0.39v25.93c0,0.26,0.13,0.39,0.39,0.39h4.75
			c0.26,0,0.39-0.13,0.39-0.39v-25.93C226,138.13,225.87,138,225.61,138z"/>
		<path class="st2" d="M227.49,133.72h-3.93c-0.29-0.18-0.56-0.44-0.8-0.79c-0.25-0.34-0.37-0.75-0.37-1.22
			c0-0.52,0.16-0.94,0.47-1.26c0.31-0.31,0.72-0.47,1.22-0.47c0.68,0,1.3,0.3,1.85,0.9c0.13,0.13,0.26,0.12,0.39-0.04l1.18-1.22
			c0.1-0.1,0.12-0.22,0.04-0.35c-0.34-0.44-0.82-0.82-1.43-1.12c-0.62-0.3-1.34-0.45-2.18-0.45c-0.76,0-1.41,0.11-1.94,0.33
			c-0.54,0.22-0.98,0.52-1.32,0.9c-0.34,0.38-0.6,0.81-0.77,1.28c-0.17,0.47-0.25,0.94-0.25,1.41c0,0.42,0.05,0.8,0.16,1.14
			c0.1,0.34,0.24,0.65,0.39,0.94h-1.45c-0.16,0-0.24,0.09-0.24,0.27v1.77c0,0.18,0.08,0.28,0.24,0.28h8.76
			c0.16,0,0.24-0.09,0.24-0.28v-1.77C227.73,133.81,227.65,133.72,227.49,133.72z"/>
		<path class="st2" d="M267.25,147.5c-1.55,0-3.02,0.18-4.44,0.55c-1.42,0.37-2.72,0.82-3.93,1.37v-1.22c0-0.26-0.13-0.39-0.39-0.39
			h-4.75c-0.26,0-0.39,0.13-0.39,0.39v15.4c0,1.6-0.38,2.78-1.14,3.54c-0.76,0.76-1.81,1.14-3.14,1.14c-0.55,0-1.09-0.09-1.63-0.26
			c-0.54-0.17-1.02-0.45-1.45-0.84c-0.43-0.39-0.78-0.9-1.04-1.53s-0.39-1.4-0.39-2.32c0-1.15,0.16-2.19,0.47-3.1
			c0.31-0.92,0.65-1.74,1.02-2.48c0.05-0.1,0.07-0.2,0.06-0.29c-0.01-0.09-0.09-0.16-0.22-0.22l-4.24-1.38
			c-0.29-0.08-0.49-0.04-0.59,0.12c-0.68,1.1-1.21,2.34-1.59,3.73c-0.38,1.39-0.57,2.74-0.57,4.05c0,1.65,0.27,3.07,0.81,4.26
			c0.54,1.19,1.26,2.16,2.18,2.91c0.92,0.75,1.98,1.3,3.2,1.65c1.22,0.35,2.51,0.53,3.87,0.53c1.34,0,2.59-0.16,3.77-0.49
			c1.18-0.33,2.21-0.83,3.08-1.51c0.88-0.68,1.58-1.57,2.12-2.65c0.54-1.09,0.84-2.39,0.92-3.91c0.5,0.05,1.01,0.09,1.53,0.12
			c0.52,0.03,1.06,0.04,1.61,0.04h6.76c1.52,0,2.81-0.1,3.87-0.31c1.06-0.21,1.92-0.6,2.57-1.18c0.65-0.58,1.13-1.37,1.41-2.38
			c0.29-1.01,0.43-2.31,0.43-3.91c0-3.25-0.83-5.63-2.49-7.15C272.87,148.26,270.44,147.5,267.25,147.5z M271.08,158.48
			c-0.12,0.43-0.35,0.76-0.69,0.98c-0.34,0.22-0.81,0.36-1.41,0.41c-0.6,0.05-1.39,0.08-2.36,0.08h-7.74v-5.93
			c1.02-0.44,2.17-0.85,3.44-1.22c1.27-0.37,2.57-0.55,3.91-0.55c1,0,1.81,0.09,2.46,0.27c0.64,0.18,1.15,0.47,1.53,0.84
			c0.38,0.38,0.65,0.84,0.81,1.39s0.24,1.18,0.24,1.89C271.25,157.44,271.19,158.05,271.08,158.48z"/>
		<path class="st2" d="M263.98,144.2h4.87c0.26,0,0.39-0.13,0.39-0.39v-3.85c0-0.26-0.13-0.39-0.39-0.39h-4.87
			c-0.26,0-0.39,0.13-0.39,0.39v3.85C263.59,144.07,263.72,144.2,263.98,144.2z"/>
		<path class="st2" d="M311.08,159.96h-8.56c-0.18-0.1-0.41-0.26-0.69-0.45c-0.28-0.2-0.54-0.46-0.81-0.79
			c-0.26-0.33-0.48-0.72-0.67-1.18c-0.18-0.46-0.27-0.99-0.27-1.59c0-1.2,0.33-2.12,0.98-2.75c0.65-0.63,1.5-0.94,2.55-0.94
			c1.44,0,2.74,0.59,3.89,1.77c0.18,0.18,0.38,0.18,0.59,0l2.47-2.95c0.21-0.21,0.24-0.41,0.08-0.59c-0.66-0.79-1.63-1.48-2.91-2.08
			c-1.28-0.6-2.87-0.9-4.75-0.9c-1.49,0-2.79,0.22-3.89,0.67c-1.1,0.45-2,1.03-2.71,1.77c-0.71,0.73-1.23,1.58-1.57,2.53
			c-0.34,0.96-0.51,1.96-0.51,3.01c0,0.97,0.14,1.83,0.41,2.57c0.28,0.75,0.62,1.38,1.04,1.9h-3.14h-0.86
			c-0.92,0-1.63-0.19-2.14-0.57c-0.51-0.38-0.79-0.9-0.84-1.55v-9.27c0-0.26-0.13-0.39-0.39-0.39h-4.79c-0.26,0-0.39,0.13-0.39,0.39
			v14.38c0,0.81-0.03,1.53-0.08,2.16c-0.05,0.63-0.18,1.16-0.37,1.59s-0.49,0.76-0.88,0.98c-0.39,0.22-0.94,0.33-1.65,0.33h-0.86
			c-0.26,0-0.39,0.13-0.39,0.39v3.97c0,0.26,0.13,0.39,0.39,0.39h1.81c2.78,0,4.74-0.71,5.89-2.14c1.15-1.43,1.73-3.63,1.73-6.62
			v-0.63c0.45,0.55,0.98,0.91,1.61,1.08c0.63,0.17,1.38,0.26,2.24,0.26h18.46c0.26,0,0.39-0.13,0.39-0.39v-3.97
			C311.48,160.09,311.35,159.96,311.08,159.96z"/>
		<path class="st2" d="M320.55,138h-4.75c-0.26,0-0.39,0.13-0.39,0.39v25.93c0,0.26,0.13,0.39,0.39,0.39h4.75
			c0.26,0,0.39-0.13,0.39-0.39v-25.93C320.94,138.13,320.81,138,320.55,138z"/>
		<path class="st2" d="M322.44,133.72h-3.93c-0.29-0.18-0.56-0.44-0.8-0.79c-0.25-0.34-0.37-0.75-0.37-1.22
			c0-0.52,0.16-0.94,0.47-1.26c0.31-0.31,0.72-0.47,1.22-0.47c0.68,0,1.3,0.3,1.85,0.9c0.13,0.13,0.26,0.12,0.39-0.04l1.18-1.22
			c0.1-0.1,0.12-0.22,0.04-0.35c-0.34-0.44-0.82-0.82-1.43-1.12c-0.62-0.3-1.34-0.45-2.18-0.45c-0.76,0-1.41,0.11-1.94,0.33
			c-0.54,0.22-0.98,0.52-1.32,0.9c-0.34,0.38-0.6,0.81-0.77,1.28c-0.17,0.47-0.25,0.94-0.25,1.41c0,0.42,0.05,0.8,0.16,1.14
			c0.1,0.34,0.24,0.65,0.39,0.94h-1.45c-0.16,0-0.24,0.09-0.24,0.27v1.77c0,0.18,0.08,0.28,0.24,0.28h8.76
			c0.16,0,0.24-0.09,0.24-0.28v-1.77C322.67,133.81,322.59,133.72,322.44,133.72z"/>
		<path class="st2" d="M339.68,149.37c-0.79-0.67-1.7-1.15-2.75-1.43c-1.05-0.29-2.15-0.43-3.3-0.43c-1.1,0-2.17,0.16-3.2,0.47
			c-1.04,0.31-1.95,0.82-2.75,1.53s-1.44,1.64-1.92,2.79c-0.48,1.15-0.73,2.57-0.73,4.24c0,1.78,0.23,3.2,0.69,4.26
			c0.46,1.06,1.13,1.89,2,2.48c0.88,0.59,1.94,0.98,3.18,1.16c1.24,0.18,2.65,0.27,4.22,0.27h1.65c0,0.73-0.08,1.32-0.25,1.75
			c-0.17,0.43-0.41,0.77-0.71,1c-0.3,0.24-0.66,0.39-1.08,0.45c-0.42,0.06-0.89,0.1-1.41,0.1h-4.52c-0.26,0-0.39,0.13-0.39,0.39
			v3.97c0,0.26,0.13,0.39,0.39,0.39h5.74c2.64,0,4.59-0.6,5.83-1.81c1.24-1.21,1.87-3.04,1.87-5.5v-9.15c0-1.68-0.23-3.08-0.69-4.22
			C341.09,150.94,340.47,150.04,339.68,149.37z M336.77,159.96h-3.02c-1,0-1.8-0.24-2.42-0.73c-0.62-0.48-0.92-1.45-0.92-2.89
			c0-1.26,0.27-2.25,0.83-2.99c0.55-0.73,1.36-1.1,2.44-1.1c2.07,0,3.1,1.3,3.1,3.89V159.96z"/>
		<path class="st2" d="M368.32,144.2h4.87c0.26,0,0.39-0.13,0.39-0.39v-3.85c0-0.26-0.13-0.39-0.39-0.39h-4.87
			c-0.26,0-0.39,0.13-0.39,0.39v3.85C367.92,144.07,368.05,144.2,368.32,144.2z"/>
		<path class="st2" d="M418.19,149.39c-0.8-0.68-1.72-1.17-2.77-1.45c-1.05-0.29-2.15-0.43-3.3-0.43c-1.13,0-2.21,0.13-3.24,0.39
			c-1.04,0.26-1.95,0.71-2.75,1.34c-0.8,0.63-1.44,1.47-1.92,2.51c-0.49,1.05-0.73,2.34-0.73,3.89v0.79
			c-0.05,1.36-0.33,2.29-0.83,2.79c-0.5,0.5-1.04,0.75-1.61,0.75h-1.14h0h-4.12c-0.31,0-0.62,0-0.92,0c-0.3,0-0.6-0.01-0.88-0.04
			c0.45-0.31,0.9-0.69,1.36-1.12c0.46-0.43,0.87-0.92,1.24-1.45c0.37-0.54,0.66-1.12,0.88-1.75c0.22-0.63,0.33-1.3,0.33-2
			c0-0.86-0.18-1.67-0.53-2.42c-0.35-0.75-0.91-1.39-1.67-1.94c-0.76-0.55-1.72-0.98-2.89-1.28c-1.17-0.3-2.55-0.45-4.14-0.45
			c-1.1,0-2.2,0.09-3.3,0.26c-1.1,0.17-2.09,0.39-2.97,0.67c-0.88,0.27-1.59,0.58-2.14,0.9c-0.55,0.33-0.82,0.66-0.82,1v2.55
			c0,0.39,0.04,0.7,0.12,0.92c0.08,0.22,0.22,0.41,0.43,0.57c0.97,0.68,1.86,1.46,2.67,2.34c0.81,0.88,1.4,1.87,1.77,2.97
			c-0.47,0.13-0.96,0.21-1.47,0.24c-0.51,0.03-0.99,0.04-1.43,0.04h-3.97h-0.16h-0.75c-0.92,0-1.63-0.19-2.14-0.57
			c-0.51-0.38-0.79-0.9-0.84-1.55v-9.27c0-0.26-0.13-0.39-0.39-0.39h-3.61c-0.29,0-0.62,0.01-1,0.04c-0.38,0.03-0.57,0.14-0.57,0.35
			v8.25c0,1.18-0.11,2-0.33,2.46c-0.22,0.46-0.74,0.69-1.55,0.69h-1.3c-0.02,0-0.04,0.01-0.07,0.01c-0.04,0-0.08-0.01-0.13-0.01
			h-1.06c-0.65,0-1.13-0.15-1.43-0.45c-0.3-0.3-0.45-0.84-0.45-1.63v-19.48c0-0.26-0.13-0.39-0.39-0.39h-4.75
			c-0.26,0-0.39,0.13-0.39,0.39v21.37c0,1.7,0.35,2.95,1.06,3.75c0.71,0.8,1.88,1.2,3.54,1.2h3.89c0.02,0,0.03-0.01,0.04-0.01
			c0.03,0,0.05,0.01,0.07,0.01h3.14c1.41,0,2.51-0.12,3.3-0.37c0.79-0.25,1.4-0.78,1.85-1.59c0.5,0.84,1.11,1.38,1.85,1.61
			c0.66,0.21,1.45,0.32,2.33,0.34c0.04,0,0.06,0.02,0.1,0.02h5.93c0.76,0,1.62-0.08,2.59-0.26c0.97-0.17,1.89-0.49,2.75-0.96
			c0.76,0.47,1.56,0.79,2.42,0.96c0.85,0.17,1.75,0.26,2.69,0.26h6.25c0,0,0,0,0,0c0.37,0,0.79-0.01,1.26-0.04
			c0.47-0.03,0.96-0.11,1.45-0.26c0.5-0.14,0.99-0.35,1.47-0.63c0.48-0.27,0.91-0.67,1.28-1.2c0.79,0.89,1.76,1.51,2.93,1.87
			s2.44,0.53,3.83,0.53c1.23,0,2.38-0.14,3.44-0.43c1.06-0.29,1.98-0.77,2.75-1.43c0.77-0.67,1.38-1.55,1.83-2.65
			c0.45-1.1,0.67-2.45,0.67-4.05c0-1.73-0.24-3.16-0.71-4.3S418.98,150.07,418.19,149.39z M391.16,157.09
			c-0.59,0.76-1.32,1.4-2.18,1.93c-0.29-1.13-0.79-2.23-1.49-3.32c-0.71-1.09-1.6-2-2.67-2.73c0.24-0.13,0.69-0.28,1.38-0.45
			c0.68-0.17,1.47-0.26,2.36-0.26c1.1,0,1.96,0.2,2.57,0.59c0.61,0.39,0.92,1.01,0.92,1.85
			C392.04,155.53,391.75,156.33,391.16,157.09z M414.55,159.35c-0.52,0.59-1.34,0.88-2.44,0.88c-1.07,0-1.89-0.29-2.44-0.88
			c-0.55-0.59-0.83-1.63-0.83-3.12c0-2.65,1.09-3.97,3.26-3.97c2.15,0,3.22,1.32,3.22,3.97
			C415.34,157.72,415.08,158.76,414.55,159.35z"/>
		<path class="st2" d="M469.39,168.05h-4.87c-0.26,0-0.39,0.13-0.39,0.39v3.85c0,0.26,0.13,0.39,0.39,0.39h4.87
			c0.26,0,0.39-0.13,0.39-0.39v-3.85C469.78,168.18,469.65,168.05,469.39,168.05z"/>
		<path class="st2" d="M509.93,148.17h-4.79c-0.26,0-0.39,0.13-0.39,0.39v8.56c0,0.52-0.01,0.96-0.04,1.32
			c-0.03,0.35-0.11,0.64-0.24,0.86c-0.13,0.22-0.33,0.39-0.59,0.49c-0.26,0.1-0.64,0.16-1.14,0.16c-0.68,0-1.29-0.14-1.83-0.41
			c-0.54-0.27-0.81-0.86-0.81-1.75v-6.4c0-0.26-0.13-0.39-0.39-0.39h-4.79c-0.26,0-0.39,0.13-0.39,0.39v5.77
			c0,0.52-0.02,0.96-0.06,1.32c-0.04,0.35-0.13,0.64-0.26,0.84c-0.13,0.21-0.35,0.37-0.65,0.47c-0.3,0.1-0.7,0.16-1.2,0.16
			c-0.63,0-1.21-0.14-1.73-0.43c-0.52-0.29-0.79-0.85-0.79-1.69v-6.44c0-0.26-0.13-0.39-0.39-0.39h-4.79
			c-0.26,0-0.39,0.13-0.39,0.39v5.89c0,1.02-0.1,1.72-0.31,2.1c-0.21,0.38-0.69,0.57-1.45,0.57h-2.63h-0.9
			c-0.92,0-1.62-0.18-2.1-0.55c-0.49-0.37-0.77-0.86-0.84-1.49v-0.63c0-1.39-0.17-2.68-0.51-3.87c-0.34-1.19-0.88-2.23-1.63-3.1
			c-0.75-0.88-1.71-1.56-2.91-2.06c-1.19-0.5-2.65-0.75-4.38-0.75c-1.68,0-3.1,0.29-4.26,0.88c-1.17,0.59-2.21,1.34-3.12,2.26
			c-0.16,0.16-0.12,0.35,0.12,0.59l2.32,2.79c0.18,0.16,0.37,0.14,0.55-0.04c0.55-0.5,1.15-0.91,1.81-1.24
			c0.65-0.33,1.4-0.49,2.24-0.49c0.76,0,1.39,0.12,1.9,0.37c0.51,0.25,0.92,0.59,1.24,1.02c0.31,0.43,0.54,0.94,0.67,1.51
			c0.13,0.58,0.2,1.19,0.2,1.85c0,0.58-0.05,1.05-0.14,1.43c-0.09,0.38-0.25,0.68-0.47,0.9c-0.22,0.22-0.53,0.38-0.92,0.47
			c-0.39,0.09-0.9,0.14-1.53,0.14h-9.74h0h-0.9c-0.92,0-1.63-0.19-2.14-0.57c-0.51-0.38-0.79-0.9-0.84-1.55v-19.44
			c0-0.26-0.13-0.39-0.39-0.39h-4.75c-0.26,0-0.39,0.13-0.39,0.39v25.22c0,1.6-0.38,2.78-1.14,3.54c-0.76,0.76-1.81,1.14-3.14,1.14
			c-0.55,0-1.09-0.09-1.63-0.26c-0.54-0.17-1.02-0.45-1.45-0.84c-0.43-0.39-0.78-0.9-1.04-1.53s-0.39-1.4-0.39-2.32
			c0-1.15,0.16-2.19,0.47-3.1c0.31-0.92,0.65-1.74,1.02-2.48c0.05-0.1,0.07-0.2,0.06-0.29c-0.01-0.09-0.08-0.16-0.22-0.22
			l-4.24-1.38c-0.29-0.08-0.48-0.04-0.59,0.12c-0.68,1.18-1.21,2.44-1.59,3.79c-0.38,1.35-0.57,2.68-0.57,3.99
			c0,1.65,0.27,3.07,0.81,4.26c0.54,1.19,1.26,2.16,2.18,2.91c0.92,0.75,1.98,1.3,3.2,1.65c1.22,0.35,2.51,0.53,3.87,0.53
			c1.39,0,2.69-0.18,3.91-0.53c1.22-0.35,2.27-0.9,3.16-1.65c0.89-0.75,1.59-1.7,2.1-2.87c0.51-1.17,0.77-2.57,0.77-4.22v-0.35
			c0.5,0.52,1.06,0.86,1.69,1c0.63,0.14,1.36,0.22,2.2,0.22c0,0,0,0,0,0h11.94c1.31,0,2.44-0.16,3.4-0.49
			c0.96-0.33,1.7-0.96,2.22-1.91c0.52,1,1.19,1.64,2,1.94c0.81,0.3,1.77,0.45,2.87,0.45h4.71c1.34,0,2.37-0.14,3.1-0.41
			c0.73-0.27,1.28-0.83,1.65-1.67c0.34,0.63,0.84,1.13,1.49,1.51c0.65,0.38,1.49,0.57,2.51,0.57h1.53c1.28,0,2.3-0.14,3.04-0.43
			c0.75-0.29,1.3-0.84,1.67-1.65c0.34,0.63,0.83,1.13,1.47,1.51c0.64,0.38,1.47,0.57,2.49,0.57h2.16c1.65,0,2.83-0.4,3.54-1.2
			c0.71-0.8,1.06-2.05,1.06-3.75v-11.2C510.32,148.3,510.19,148.17,509.93,148.17z"/>
	</g>
</g>
</svg>
