<?xml version="1.0" encoding="utf-8"?>
<!-- Generator: Adobe Illustrator 23.1.0, SVG Export Plug-In . SVG Version: 6.00 Build 0)  -->
<svg version="1.1" xmlns="http://www.w3.org/2000/svg" xmlns:xlink="http://www.w3.org/1999/xlink" x="0px" y="0px"
	 viewBox="0 0 430.4 500" style="enable-background:new 0 0 430.4 500;" xml:space="preserve">
<style type="text/css">
	.st0{opacity:0.33;fill:#CED5D9;}
	.st1{fill:#D8AFB6;}
	.st2{fill:#B6D8F3;}
	.st3{fill:#EECAAB;}
	.st4{fill:#9AA8B1;}
	.st5{fill:#AE5868;}
	.st6{fill:#FFFFFF;}
	.st7{fill:#992C40;}
	.st8{font-family:'Montserrat-Regular';}
	.st9{font-size:5.3207px;}
	.st10{fill:#5E7582;}
	.st11{fill:#AED3F0;}
	.st12{font-size:3.9633px;}
	.st13{opacity:0.57;}
	.st14{font-size:3.6209px;}
	.st15{fill:none;stroke:#992C40;stroke-width:0.4414;stroke-miterlimit:10;}
	.st16{opacity:0.52;}
	.st17{fill:none;stroke:#C99554;stroke-width:0.4414;stroke-miterlimit:10;}
	.st18{opacity:0.25;fill:#AE5868;}
	.st19{fill:#C7CFD4;}
	.st20{fill:#4A6473;}
	.st21{fill:#7B8E99;}
	.st22{opacity:0.33;}
	.st23{fill:#C99554;}
</style>
<g id="Objects">
	<g>
		<g>
			<path class="st0" d="M34.7,241.8l98.4-0.3l-25.1-5.1c0,0,1-28.2-11.3-22.5C84.5,219.5,84,231.8,84,231.8s-4.6-11.3-11.3-7.2
				c-6.7,4.1-9.7,11.3-9.7,11.3s-2.4-8.1-6.7-8.6c-3.7-0.4-10.6,7.3-14.2,11.7L34.7,241.8z"/>
			<path class="st0" d="M305.4,287.5l81.2-0.2l-20.7-3.8c0,0,0.8-20.9-9.3-16.8c-10.1,4.2-10.6,13.3-10.6,13.3s-3.8-8.4-9.3-5.3
				c-5.5,3-8,8.4-8,8.4s-2-6-5.5-6.4c-3-0.3-8.7,5.4-11.7,8.7L305.4,287.5z"/>
			<path class="st0" d="M173.3,171.2l81.2-0.3l-20.7-4.2c0,0,0.8-23.2-9.3-18.6c-10.1,4.6-10.6,14.8-10.6,14.8s-3.8-9.3-9.3-5.9
				c-5.5,3.4-8,9.3-8,9.3s-2-6.7-5.5-7.1c-3-0.3-8.7,6-11.7,9.6L173.3,171.2z"/>
		</g>
		<g>
			<path class="st1" d="M316.1,157.1l-6.2,2.1l-2.7-7.7c-4.9-14.2-20.5-21.8-34.8-16.8c-14.2,4.9-21.8,20.5-16.8,34.8l2.7,7.7
				l-6.2,2.2c-4.8,1.7-7.4,7-5.7,11.8l17.4,50.2c1.7,4.9,7,7.5,11.9,5.8l63.9-22.2c4.9-1.7,7.5-7,5.8-11.9l-17.4-50.2
				C326.4,158,321,155.4,316.1,157.1z M267.4,165.4c-2.7-7.8,1.4-16.3,9.2-19c7.8-2.7,16.3,1.4,19,9.2l2.7,7.7l-28.3,9.8
				L267.4,165.4z M304.4,211.2l4.4,12.8c0.2,0.5-0.1,1.1-0.7,1.3l-6.1,2.1c-0.5,0.2-1.1-0.1-1.3-0.6l-4.4-12.8
				c-4.8-0.2-9.2-3.2-10.9-8c-2.2-6.2,1.1-13,7.4-15.2c6.2-2.2,13,1.1,15.2,7.3C309.7,203,308.1,208.1,304.4,211.2z"/>
			<g>
				<path class="st2" d="M273.8,405.1c-1.5-3,2-6.1,5.3-6.7c3.3-0.6,7-0.1,9.6-2.2c3.5-2.8,3.3-8.8,7.2-11c3.1-1.8,7.2-0.1,10.5-1.5
					c4.1-1.7,5.2-7.4,9.2-9.3c3.2-1.5,7.4,0.2,9,3.3c1.6,3.1,0.9,7.2-1.4,9.9c-1.8,2.1-4.4,3.6-5.5,6.2c-1.7,4,1,8.8-0.6,12.8
					c-2.9,7.4-16.7,5.2-19.1,12.8c-0.5,1.7-0.3,3.5-0.4,5.3c-0.4,5.3-4.1,9.9-8.7,12.5c-4.6,2.6-10,3.5-15.2,3.9
					c-2.2,0.2-4.4,0.2-6.4-0.8c-1.8-0.9-3.1-2.7-4.1-4.4C256.9,424.4,254.3,409.4,273.8,405.1"/>
			</g>
			<g>
				<path class="st3" d="M172.2,399c3.4-2.3,1.5-7.8-1.6-10.4c-3.2-2.6-7.4-4.4-8.9-8.1c-2.1-5,1.7-11.4-1.1-16.1
					c-2.2-3.8-7.7-4.4-10.3-7.9c-3.3-4.3-1.1-11.1-4.3-15.5c-2.5-3.5-8-4.2-11.6-1.8c-3.6,2.4-5.3,7.2-4.5,11.4
					c0.6,3.3,2.5,6.5,2.2,9.9c-0.6,5.3-6.4,8.8-7.1,14.1c-1.4,9.7,14.7,15.6,12.7,25.2c-0.5,2.1-1.8,4-2.7,5.9
					c-2.7,5.9-1.5,13.1,1.8,18.6c3.3,5.6,8.5,9.8,14,13.4c2.2,1.5,4.6,2.9,7.3,3c2.5,0.1,4.9-1,7-2.3
					C178.7,429.8,190.5,415.3,172.2,399"/>
			</g>
			<g>
				<g>
					<path class="st4" d="M261.6,411.1c4.8-2.1,9.1-5.9,12.6-9.5c9.6-9.9,15.5-22.8,18.7-36.2c2.8-12.1,3.5-24.5,2.9-36.9
						c-0.1-1-1.7-1.1-1.6,0c1.3,27.7-4.2,61.7-29,78.6c-1.4,0.9-2.8,1.9-4.4,2.6C259.8,410.2,260.6,411.6,261.6,411.1L261.6,411.1z"
						/>
				</g>
				<path class="st4" d="M293.1,360.8c0,0,1.6-9,13.5-10.4C306.6,350.4,302.3,361,293.1,360.8z"/>
				<path class="st4" d="M289.2,374.1c0,0,3.6-8.4,15.5-7C304.7,367.1,298,376.4,289.2,374.1z"/>
				<path class="st4" d="M284.2,385.8c0,0,5.4-7.3,16.7-3.3C300.9,382.4,292.2,390,284.2,385.8z"/>
				<path class="st4" d="M295,346.8c0,0,1.5-8.8,13.2-10.2C308.2,336.6,303.9,347.1,295,346.8z"/>
				<path class="st4" d="M295.1,331.5c0,0-6.7-6-1.6-16.6C293.5,314.9,300.1,324,295.1,331.5z"/>
				<path class="st4" d="M295.2,340.6c0,0-8.8-1.6-10.1-13.3C285.1,327.3,295.5,331.6,295.2,340.6z"/>
				<path class="st4" d="M294.3,354c0,0-8.8-1.6-10.1-13.3C284.2,340.7,294.6,345.1,294.3,354z"/>
				<path class="st4" d="M292,366.6c0,0-8.7-2.2-9.1-14C282.8,352.6,292.9,357.7,292,366.6z"/>
				<path class="st4" d="M288,379.2c0,0-8.7-2.2-9.1-14C278.8,365.2,288.9,370.3,288,379.2z"/>
			</g>
			<g>
				<path class="st5" d="M263.1,442.7h-89.3c-10.3,0-18.7-8.4-18.7-18.7V213.1c0-10.3,8.4-18.7,18.7-18.7h89.3
					c10.3,0,18.7,8.4,18.7,18.7v210.9C281.8,434.4,273.4,442.7,263.1,442.7z"/>
				<path class="st6" d="M262.9,434h-88.8c-7.2,0-13.1-5.9-13.1-13.1v-206c0-7.2,5.9-13.1,13.1-13.1h88.8c7.2,0,13.1,5.9,13.1,13.1
					v206C275.9,428.1,270.1,434,262.9,434z"/>
				<path class="st5" d="M252.9,201.8h-7.5c-2.3,0-4.2,1.9-4.2,4.2v3c0,2.3-1.9,4.2-4.2,4.2h-33.3c-2.3,0-4.2-1.9-4.2-4.2v-3
					c0-2.3-1.9-4.2-4.2-4.2h-21.2v-2.1h78.6V201.8z"/>
				<g>
					<g>
						<g>
							<path class="st7" d="M221.7,237.5c0.5-0.3,0.8-0.8,0.8-1.4c0-0.9-0.7-1.5-1.5-1.5c-0.9,0-1.5,0.7-1.5,1.5
								c0,0.6,0.3,1.1,0.8,1.4c-1,0.3-1.7,1.2-1.7,2.3v1.2h4.8v-1.2C223.4,238.8,222.6,237.9,221.7,237.5z"/>
							<g>
								<text transform="matrix(1 0 0 1 200.3514 249.619)" class="st7 st8 st9">Create Account</text>
							</g>
						</g>
						<g>
							<path class="st10" d="M240.9,399.9h-46.1c-0.5,0-0.9-0.4-0.9-0.9v-9c0-0.5,0.4-0.9,0.9-0.9h46.1c0.5,0,0.9,0.4,0.9,0.9v9
								C241.8,399.5,241.4,399.9,240.9,399.9z"/>
							<g>
								<text transform="matrix(1 0 0 1 209.6288 395.702)" class="st11 st8 st12">Register</text>
							</g>
						</g>
						<g>
							<g class="st13">
								<text transform="matrix(1 0 0 1 177.2098 264.0487)" class="st7 st8 st14">Email Address</text>
							</g>
							<g>
								<text transform="matrix(1 0 0 1 181.2801 275.867)" class="st7 st8 st14">youremail@gmail.c</text>
							</g>
							<path class="st15" d="M262.2,281.2h-82.6c-1.3,0-2.4-1.1-2.4-2.4v-8.3c0-1.3,1.1-2.4,2.4-2.4h82.6c1.3,0,2.4,1.1,2.4,2.4v8.3
								C264.7,280.1,263.6,281.2,262.2,281.2z"/>
						</g>
						<g>
							<g>
								<g class="st16">
									<text transform="matrix(1 0 0 1 177.2098 293.3866)" class="st7 st8 st14">Country</text>
								</g>
								<g>
									<g>
										<text transform="matrix(1 0 0 1 181.2801 305.0916)" class="st7 st8 st14">Your text</text>
									</g>
									<path class="st15" d="M262.2,310.6h-82.6c-1.3,0-2.4-1.1-2.4-2.4v-8.3c0-1.3,1.1-2.4,2.4-2.4h82.6c1.3,0,2.4,1.1,2.4,2.4
										v8.3C264.7,309.5,263.6,310.6,262.2,310.6z"/>
								</g>
							</g>
						</g>
						<g>
							<g>
								<g class="st16">
									<text transform="matrix(1 0 0 1 177.2098 324.3641)" class="st7 st8 st14">City</text>
								</g>
								<g>
									<g>
										<text transform="matrix(1 0 0 1 181.2801 336.0692)" class="st7 st8 st14">Your City</text>
									</g>
									<path class="st15" d="M262.2,341.6h-82.6c-1.3,0-2.4-1.1-2.4-2.4v-8.3c0-1.3,1.1-2.4,2.4-2.4h82.6c1.3,0,2.4,1.1,2.4,2.4
										v8.3C264.7,340.5,263.6,341.6,262.2,341.6z"/>
								</g>
							</g>
						</g>
						<g>
							<g>
								<g class="st16">
									<text transform="matrix(1 0 0 1 177.2098 355.493)" class="st7 st8 st14">Password</text>
								</g>
								<g>
									<g>
										<text transform="matrix(1 0 0 1 181.2801 367.1971)" class="st7 st8 st14">Entry password</text>
									</g>
									<path class="st15" d="M262.2,372.7h-82.6c-1.3,0-2.4-1.1-2.4-2.4V362c0-1.3,1.1-2.4,2.4-2.4h82.6c1.3,0,2.4,1.1,2.4,2.4
										v8.3C264.7,371.6,263.6,372.7,262.2,372.7z"/>
								</g>
							</g>
						</g>
					</g>
					<line class="st17" x1="217.1" y1="271.5" x2="217.1" y2="276.2"/>
				</g>
			</g>
		</g>
		<g>
			<path class="st18" d="M262.3,480.3c0-1-25.2-1.9-56.3-1.9c-31.1,0-56.3,0.8-56.3,1.9c0,1,25.2,1.9,56.3,1.9
				C237.1,482.2,262.3,481.4,262.3,480.3z"/>
			<g>
				<path class="st19" d="M212,361.3c0,0,5.6,8.6,6.9,4.9c1.3-3.7,2-6,2-6s-1.6-2.6-2.4-1.8c-0.9,0.8-2-0.7-2-0.7L212,361.3z"/>
				<g>
					<path class="st19" d="M239.6,316.6l2.3-13.4c1.5-0.5,3.1-1.7,2.5-3.5c-0.3-0.9-1-1.4-1.8-1.7c-0.3-0.1-1.9-0.6-2,0
						c0,0,0.9-4.8,0.9-4.8l-15.7-7.6c0,0-1.4,9.6-1.5,9.7c0-0.1-1.5-0.5-1.7-0.5c-0.8,0.1-1.6,0.8-1.9,1.5c-0.8,1.8,0.8,4.1,2.7,4.2
						c0,0,0.3,4.3,1.3,5.9c1,1.5,5.6,2.6,5.6,2.6l-0.5,5.8L239.6,316.6z"/>
				</g>
				<g>
					<path class="st3" d="M244.9,317.7c-7.1-2-17.1-3.8-17.1-3.8l-6.6,47.2l27.9-0.9L244.9,317.7z"/>
				</g>
				<g>
					<path class="st3" d="M244.9,317.7c9.3,2.4,18.4,4.3,28,5.3c-2.1-9.7-3.3-17.1-6.1-25.3c2.7-0.7,7.8-2,10.5-2.7
						c0,0,8.8,30.6,6.1,34.7c-4.5,6.9-27.2,2.4-27.2,2.4l-10.7-1.9L244.9,317.7z"/>
				</g>
				<g>
					<path class="st3" d="M197.1,328.1c0,0,30-14.7,31.3-14.1c1.4,0.5,2.5,7.3,2.5,7.3s-10.9,6.9-27.7,14.7l15.3,20.8l-7.6,5.5
						c0,0-21-23.6-20.2-28.4C191.5,330.1,197.1,328.1,197.1,328.1z"/>
				</g>
				<path class="st19" d="M276.9,295.1c0,0-1.2-8.7-1.4-8.9c-0.1-0.2-0.1-1.8-2.4-1.4c0,0-0.1-2.7-1.4-2.8s-2.7,0.3-2.7,0.3
					s-1.4-7-2.4-8.3c-1-1.3-2.5,2.2-0.2,10.8c0,0,1.2,5.8,0.9,6.1c-1,0.6-2.4,0.5-4.3-2.8c-2-3.4-4.5-2.3-3.3,0.4
					c1.2,2.7,3,6.1,4.1,7.1c1.1,0.9,3.5,0.8,3.5,0.8l0.4,1.1L276.9,295.1z"/>
				<g>
					<path class="st20" d="M249.1,360.3c-3.4,51.1-14.8,114.1-14.8,114.1l11.2,4.7h-23.8l15.6-111.4H232l-39.5,111.5h-23.8l13.5-4.9
						l39.5-116.7L249.1,360.3z"/>
				</g>
				<path class="st21" d="M243.4,298.4c1.3-2.7,2.9-9.1-1.2-10.9c-2.1-0.9-4.3-2.3-5.9-3.3c-2.5-1.6-5.5-2.3-8.4-1.5
					c-0.5,0.1-0.9,0.3-1.3,0.5c-2.8,1.4-4.7,8.9-4.7,8.9l2.8,0.7c0,0,3.1,13.7,8.2,16.6l5.1,1.1l3,0.7L243.4,298.4z"/>
				<g>
					<g>
						<path class="st21" d="M239.7,286.5c0-0.8,0-1.6-0.1-2.5c0-0.3-0.6-0.3-0.5,0c0.1,0.8,0.1,1.6,0.1,2.5
							C239.2,286.9,239.7,286.9,239.7,286.5L239.7,286.5z"/>
					</g>
				</g>
				<g>
					<g>
						<path class="st21" d="M239.7,286.6c0.4-0.2,0.5-0.6,0.7-1c0.2-0.4,0.5-0.8,0.8-1.2c0.2-0.3-0.3-0.5-0.5-0.3
							c-0.2,0.3-0.5,0.6-0.7,1c-0.2,0.3-0.3,0.9-0.6,1.1C239.2,286.3,239.4,286.8,239.7,286.6L239.7,286.6z"/>
					</g>
				</g>
			</g>
		</g>
	</g>
	<g class="st22">
		<path class="st0" d="M62.7,90.7l80.2-0.3l-20.4-4.2c0,0,0.8-23-9.2-18.4c-10,4.6-10.4,14.6-10.4,14.6s-3.8-9.2-9.2-5.8
			c-5.4,3.3-7.9,9.2-7.9,9.2s-1.9-6.6-5.4-7c-3-0.3-8.6,6-11.6,9.5L62.7,90.7z"/>
		<path class="st0" d="M283.2,127.9l66.1-0.2l-16.9-3.1c0,0,0.7-17.1-7.6-13.6c-8.3,3.4-8.6,10.9-8.6,10.9s-3.1-6.8-7.6-4.3
			c-4.5,2.5-6.5,6.8-6.5,6.8s-1.6-4.9-4.5-5.2c-2.5-0.2-7.1,4.4-9.6,7.1L283.2,127.9z"/>
		<path class="st0" d="M175.6,33.2l66.1-0.2l-16.9-3.4c0,0,0.7-18.9-7.6-15.1c-8.3,3.8-8.6,12-8.6,12s-3.1-7.6-7.6-4.8
			c-4.5,2.8-6.5,7.6-6.5,7.6s-1.6-5.4-4.5-5.8c-2.5-0.3-7.1,4.9-9.6,7.8L175.6,33.2z"/>
	</g>
	<g>
		<path class="st7" d="M49.5,52.9c-0.4,0.3-1,0.5-1.7,0.6c-0.7,0.1-1.5,0.1-2.4,0.1h-2.3c-0.2,0-0.4-0.1-0.4-0.4v-3.5
			c0-0.2,0.1-0.4,0.4-0.4h1.4c0.3,0,0.6-0.1,0.8-0.3c0.2-0.2,0.3-0.4,0.4-0.7c0.1-0.3,0.2-0.7,0.2-1.1c0-0.4,0-0.9,0-1.4V30.1
			c0-0.2,0.1-0.4,0.4-0.4h4.3c0.2,0,0.4,0.1,0.4,0.4v9.9c1.1-0.5,2.2-0.9,3.5-1.2c1.3-0.3,2.6-0.5,4-0.5c2.9,0,5,0.7,6.5,2
			c1.5,1.4,2.2,3.5,2.2,6.4v0.8c0,0.6,0.3,1.1,0.7,1.4c0.4,0.3,1.1,0.5,1.9,0.5h0.8c0.5,0,0.8,0.2,1.1,0.5c0.2,0.3,0.4,0.9,0.4,1.6
			c0,1.4-0.5,2.1-1.4,2.1c-1,0-1.9-0.1-2.6-0.4c-0.7-0.3-1.3-0.9-1.7-1.8c-0.5,0.9-1.3,1.5-2.3,1.8c-1,0.3-2.3,0.4-4,0.4h-8.4
			C50.5,53.6,49.9,53.4,49.5,52.9z M57.4,42.5c-1.2,0-2.3,0.2-3.5,0.5c-1.1,0.3-2.2,0.7-3.1,1.1V48c0,0.3,0,0.5,0,0.7
			c0,0.2,0,0.4-0.1,0.6h7c0.9,0,1.6,0,2.1-0.1c0.6,0,1-0.2,1.3-0.4c0.3-0.2,0.5-0.5,0.6-0.9c0.1-0.4,0.2-0.9,0.2-1.7
			c0-0.6-0.1-1.2-0.2-1.7c-0.1-0.5-0.4-0.9-0.7-1.2c-0.3-0.3-0.8-0.6-1.4-0.8C59.1,42.6,58.3,42.5,57.4,42.5z"/>
		<path class="st7" d="M80.4,38.2c1.2,0,2.3,0.1,3.2,0.4c1,0.3,1.8,0.7,2.5,1.2c0.7,0.5,1.2,1.1,1.6,1.9c0.4,0.7,0.5,1.6,0.5,2.6
			c0,1.1-0.3,2.1-0.8,3s-1.2,1.6-2,2.2c0.2,0,0.4,0,0.6,0c0.2,0,0.4,0,0.6,0h3.6c0.5,0,0.8,0.1,1.1,0.4c0.2,0.3,0.4,0.8,0.4,1.7
			c0,0.8-0.1,1.4-0.3,1.7c-0.2,0.3-0.6,0.5-1.1,0.5H85c-0.8,0-1.6,0-2.4-0.1c-0.8-0.1-1.5-0.3-2.1-0.7c-0.8,0.4-1.6,0.7-2.5,0.7
			s-1.7,0.1-2.3,0.1h-5.1c-0.5,0-0.8-0.2-1.1-0.5c-0.2-0.3-0.3-0.9-0.3-1.7c0-0.7,0.1-1.3,0.3-1.6c0.2-0.3,0.6-0.5,1.1-0.5h4.8
			c-0.8-0.5-1.4-1.2-1.9-2.1c-0.5-0.9-0.8-1.9-0.8-3c0-1,0.2-1.9,0.5-2.6c0.4-0.7,0.9-1.4,1.6-1.9c0.7-0.5,1.5-0.9,2.5-1.2
			C78.2,38.4,79.2,38.2,80.4,38.2z M76,35.3c-0.2,0-0.4-0.1-0.4-0.4v-3.4c0-0.2,0.1-0.4,0.4-0.4h3.5c0.2,0,0.4,0.1,0.4,0.4v3.4
			c0,0.2-0.1,0.4-0.4,0.4H76z M80.4,41.7c-0.8,0-1.4,0.2-2,0.7c-0.6,0.5-0.9,1.2-0.9,2.2c0,1.1,0.3,1.9,0.8,2.6
			c0.6,0.6,1.2,1.2,2,1.5c0.8-0.4,1.4-0.9,2-1.5c0.6-0.6,0.8-1.5,0.8-2.6c0-1-0.3-1.8-0.9-2.2C81.8,41.9,81.1,41.7,80.4,41.7z
			 M81.4,35.3c-0.2,0-0.4-0.1-0.4-0.4v-3.4c0-0.2,0.1-0.4,0.4-0.4H85c0.2,0,0.4,0.1,0.4,0.4v3.4c0,0.2-0.1,0.4-0.4,0.4H81.4z"/>
		<path class="st7" d="M90.3,53.6c-0.5,0-0.8-0.1-1.1-0.4c-0.2-0.3-0.3-0.9-0.3-1.7c0-0.7,0.1-1.3,0.4-1.6c0.2-0.3,0.6-0.5,1.1-0.5
			H93c-0.4-0.8-0.6-1.8-0.6-3.2c0-1.5,0.2-2.8,0.6-3.8s1-1.8,1.7-2.4c0.7-0.6,1.6-1,2.5-1.3c0.9-0.3,1.9-0.4,2.9-0.4
			c1,0,2,0.1,3,0.4c0.9,0.3,1.8,0.7,2.5,1.3c0.7,0.6,1.3,1.4,1.7,2.4s0.6,2.3,0.6,3.8c0,1.4-0.2,2.6-0.6,3.6
			c-0.4,0.9-0.9,1.7-1.6,2.3c-0.7,0.6-1.5,1-2.5,1.2c-0.9,0.2-2,0.4-3.1,0.4H90.3z M100.2,42.5c-1.9,0-2.9,1.1-2.9,3.4
			c0,1.4,0.2,2.3,0.7,2.8c0.5,0.5,1.2,0.8,2.2,0.8c1,0,1.7-0.3,2.2-0.8c0.5-0.5,0.7-1.4,0.7-2.7C103.1,43.7,102.2,42.5,100.2,42.5z
			 M98,35.3c-0.2,0-0.4-0.1-0.4-0.4v-3.4c0-0.2,0.1-0.4,0.4-0.4h4.4c0.2,0,0.4,0.1,0.4,0.4v3.4c0,0.2-0.1,0.4-0.4,0.4H98z"/>
		<path class="st7" d="M132.4,42.1c0-0.2,0.1-0.4,0.4-0.4h4.3c0.2,0,0.4,0.1,0.4,0.4v5.4c0,0.6,0.3,1,0.8,1.4
			c0.5,0.3,1.1,0.5,1.9,0.5h0.7c0.5,0,0.8,0.2,1.1,0.5c0.2,0.3,0.4,0.9,0.4,1.6c0,1.4-0.5,2.1-1.4,2.1c-0.7,0-1.3-0.1-1.9-0.2
			c-0.6-0.1-1-0.4-1.5-0.9v0.3c0,1.5-0.2,2.7-0.7,3.8c-0.5,1-1.1,1.9-1.9,2.6s-1.7,1.2-2.8,1.5c-1.1,0.3-2.3,0.5-3.5,0.5
			c-1.2,0-2.4-0.2-3.5-0.5c-1.1-0.3-2-0.8-2.9-1.5c-0.8-0.7-1.5-1.5-2-2.6s-0.7-2.3-0.7-3.8c0-1.2,0.2-2.4,0.5-3.6
			c0.3-1.2,0.8-2.4,1.4-3.3c0.1-0.1,0.3-0.2,0.5-0.1l3.8,1.2c0.1,0,0.2,0.1,0.2,0.2c0,0.1,0,0.2-0.1,0.3c-0.3,0.7-0.6,1.4-0.9,2.2
			c-0.3,0.8-0.4,1.7-0.4,2.8c0,0.8,0.1,1.5,0.4,2.1c0.2,0.6,0.5,1,0.9,1.4c0.4,0.4,0.8,0.6,1.3,0.8c0.5,0.2,1,0.2,1.5,0.2
			c1.2,0,2.1-0.3,2.8-1c0.7-0.7,1-1.7,1-3.2V42.1z M127,39.1c-0.2,0-0.4-0.1-0.4-0.4v-3.4c0-0.2,0.1-0.4,0.4-0.4h4.4
			c0.2,0,0.4,0.1,0.4,0.4v3.4c0,0.2-0.1,0.4-0.4,0.4H127z"/>
		<path class="st7" d="M144.6,39.2c0-0.2,0.1-0.4,0.4-0.4h4.3c0.2,0,0.4,0.1,0.4,0.4v8.3c0,0.6,0.3,1,0.8,1.4
			c0.5,0.3,1.1,0.5,1.9,0.5h0.8c0.5,0,0.8,0.2,1.1,0.5c0.2,0.3,0.4,0.9,0.4,1.6c0,1.4-0.5,2.1-1.4,2.1c-0.9,0-1.7-0.1-2.3-0.3
			c-0.7-0.2-1.2-0.7-1.7-1.4c-0.4,0.8-0.9,1.2-1.7,1.4c-0.7,0.2-1.8,0.3-3,0.3h-3.6c-0.5,0-0.8-0.1-1.1-0.4
			c-0.2-0.3-0.4-0.8-0.4-1.6s0.1-1.4,0.3-1.7c0.2-0.3,0.6-0.5,1.1-0.5h2.2c0.7,0,1.2-0.2,1.4-0.6c0.2-0.4,0.3-1.2,0.3-2.2V39.2z
			 M142.4,60.8c-0.2,0-0.4-0.1-0.4-0.4V57c0-0.2,0.1-0.4,0.4-0.4h3.5c0.2,0,0.4,0.1,0.4,0.4v3.4c0,0.2-0.1,0.4-0.4,0.4H142.4z
			 M147.8,60.8c-0.2,0-0.4-0.1-0.4-0.4V57c0-0.2,0.1-0.4,0.4-0.4h3.5c0.2,0,0.4,0.1,0.4,0.4v3.4c0,0.2-0.1,0.4-0.4,0.4H147.8z"/>
		<path class="st7" d="M164,53.9c-1.2,0-2.4-0.2-3.4-0.5c-1-0.3-1.9-0.9-2.6-1.7c-0.3,0.4-0.6,0.8-1,1c-0.4,0.3-0.9,0.5-1.3,0.6
			c-0.5,0.1-0.9,0.2-1.4,0.2c-0.4,0-0.8,0.1-1.2,0.1c-0.5,0-0.8-0.2-1.1-0.5c-0.2-0.3-0.4-0.8-0.4-1.6c0-0.8,0.1-1.4,0.3-1.7
			c0.2-0.3,0.6-0.5,1.1-0.5h1c0.5,0,1-0.2,1.5-0.7c0.4-0.4,0.7-1.3,0.7-2.5v-0.7c0-2.3,0.7-4.1,2-5.4c1.3-1.3,3.2-1.9,5.7-1.9
			c2.4,0,4.3,0.7,5.7,2c1.4,1.3,2.1,3.3,2.1,6c0,0.2,0,0.3,0,0.5c0,0.2,0,0.3,0,0.4c0,0.8,0.3,1.3,0.7,1.7c0.4,0.4,0.9,0.5,1.5,0.5
			h1c0.5,0,0.8,0.2,1.1,0.5c0.2,0.3,0.4,0.9,0.4,1.6c0,1.4-0.5,2.1-1.4,2.1c-0.4,0-0.9,0-1.3-0.1c-0.4,0-0.9-0.1-1.3-0.3
			c-0.4-0.1-0.8-0.3-1.2-0.6c-0.4-0.3-0.7-0.6-1-1.1c-0.7,0.8-1.6,1.4-2.7,1.8C166.4,53.7,165.3,53.9,164,53.9z M164,42.5
			c-1.9,0-2.9,1.2-2.9,3.5c0,1.3,0.2,2.3,0.7,2.8c0.5,0.5,1.2,0.8,2.2,0.8c1,0,1.7-0.3,2.2-0.8s0.7-1.5,0.7-2.8
			C166.9,43.7,165.9,42.5,164,42.5z"/>
		<path class="st7" d="M185.8,53.9c-1.2,0-2.4-0.2-3.4-0.5c-1-0.3-1.9-0.9-2.6-1.7c-0.3,0.4-0.6,0.8-1,1c-0.4,0.3-0.9,0.5-1.3,0.6
			c-0.5,0.1-0.9,0.2-1.4,0.2s-0.8,0.1-1.2,0.1c-0.5,0-0.8-0.2-1.1-0.5c-0.2-0.3-0.4-0.8-0.4-1.6c0-0.8,0.1-1.4,0.3-1.7
			s0.6-0.5,1.1-0.5h1c0.5,0,1-0.2,1.5-0.7c0.4-0.4,0.7-1.3,0.7-2.5v-0.7c0-2.3,0.7-4.1,2-5.4s3.2-1.9,5.7-1.9c2.4,0,4.3,0.7,5.7,2
			c1.4,1.3,2.1,3.3,2.1,6c0,0.2,0,0.3,0,0.5c0,0.2,0,0.3,0,0.4c0,0.8,0.3,1.3,0.7,1.7c0.4,0.4,0.9,0.5,1.5,0.5h1
			c0.5,0,0.8,0.2,1.1,0.5c0.2,0.3,0.4,0.9,0.4,1.6c0,1.4-0.5,2.1-1.4,2.1c-0.4,0-0.9,0-1.3-0.1c-0.4,0-0.9-0.1-1.3-0.3
			c-0.4-0.1-0.8-0.3-1.2-0.6c-0.4-0.3-0.7-0.6-1-1.1c-0.7,0.8-1.6,1.4-2.7,1.8C188.3,53.7,187.1,53.9,185.8,53.9z M185.8,42.5
			c-1.9,0-2.9,1.2-2.9,3.5c0,1.3,0.2,2.3,0.7,2.8c0.5,0.5,1.2,0.8,2.2,0.8c1,0,1.7-0.3,2.2-0.8s0.7-1.5,0.7-2.8
			C188.7,43.7,187.7,42.5,185.8,42.5z"/>
		<path class="st7" d="M199.6,38.9c0-0.2,0.1-0.4,0.4-0.4h4.3c0.2,0,0.4,0.1,0.4,0.4v1.1c1.1-0.5,2.2-0.9,3.5-1.2
			c1.3-0.3,2.6-0.5,4-0.5c2.9,0,5,0.7,6.5,2c1.5,1.4,2.2,3.5,2.2,6.4c0,0.1,0,0.3,0,0.4s0,0.3,0,0.4c0,0.6,0.3,1,0.8,1.4
			c0.5,0.3,1.1,0.5,1.9,0.5h0.8c0.5,0,0.8,0.2,1.1,0.5c0.2,0.3,0.4,0.9,0.4,1.6c0,1.4-0.5,2.1-1.4,2.1c-1,0-1.9-0.1-2.6-0.4
			c-0.7-0.3-1.3-0.9-1.7-1.8c-0.5,0.9-1.3,1.5-2.2,1.8s-2.3,0.4-3.9,0.4h-6.8c-0.4,0-0.7,0-1.1,0c-0.4,0-0.8,0-1.1-0.1
			c-0.4,0-0.7-0.1-0.9-0.2c-0.3-0.1-0.5-0.2-0.6-0.4c-0.4,0.3-0.9,0.5-1.4,0.6c-0.5,0.1-1.2,0.1-1.9,0.1h-3.1
			c-0.5,0-0.8-0.1-1.1-0.4s-0.4-0.8-0.4-1.7c0-0.9,0.1-1.5,0.3-1.7c0.2-0.3,0.6-0.4,1.1-0.4h1.4c0.4,0,0.6-0.1,0.8-0.2
			c0.2-0.2,0.3-0.4,0.4-0.6c0.1-0.3,0.1-0.6,0.2-0.9c0-0.4,0-0.8,0-1.2V38.9z M211.1,42.5c-1.2,0-2.3,0.2-3.5,0.5
			c-1.1,0.3-2.2,0.7-3.1,1.1V48c0,0.3,0,0.5,0,0.7c0,0.2,0,0.4-0.1,0.6h7c0.9,0,1.6,0,2.1-0.1c0.5,0,1-0.2,1.3-0.4
			c0.3-0.2,0.5-0.5,0.6-0.9c0.1-0.4,0.2-0.9,0.2-1.7c0-0.6-0.1-1.2-0.2-1.7c-0.1-0.5-0.4-0.9-0.7-1.2c-0.3-0.3-0.8-0.6-1.4-0.8
			C212.7,42.6,211.9,42.5,211.1,42.5z"/>
		<path class="st7" d="M235.1,53.9c-1.2,0-2.4-0.2-3.4-0.5c-1-0.3-1.9-0.9-2.6-1.7c-0.3,0.4-0.6,0.8-1,1c-0.4,0.3-0.9,0.5-1.3,0.6
			c-0.5,0.1-0.9,0.2-1.4,0.2s-0.8,0.1-1.2,0.1c-0.5,0-0.8-0.2-1.1-0.5c-0.2-0.3-0.4-0.8-0.4-1.6c0-0.8,0.1-1.4,0.3-1.7
			s0.6-0.5,1.1-0.5h1c0.5,0,1-0.2,1.5-0.7c0.4-0.4,0.7-1.3,0.7-2.5v-0.7c0-2.3,0.7-4.1,2-5.4s3.2-1.9,5.7-1.9c2.4,0,4.3,0.7,5.7,2
			c1.4,1.3,2.1,3.3,2.1,6c0,0.2,0,0.3,0,0.5c0,0.2,0,0.3,0,0.4c0,0.8,0.3,1.3,0.7,1.7c0.4,0.4,0.9,0.5,1.5,0.5h1
			c0.5,0,0.8,0.2,1.1,0.5c0.2,0.3,0.4,0.9,0.4,1.6c0,1.4-0.5,2.1-1.4,2.1c-0.4,0-0.9,0-1.3-0.1c-0.4,0-0.9-0.1-1.3-0.3
			c-0.4-0.1-0.8-0.3-1.2-0.6c-0.4-0.3-0.7-0.6-1-1.1c-0.7,0.8-1.6,1.4-2.7,1.8C237.5,53.7,236.4,53.9,235.1,53.9z M235.1,42.5
			c-1.9,0-2.9,1.2-2.9,3.5c0,1.3,0.2,2.3,0.7,2.8c0.5,0.5,1.2,0.8,2.2,0.8c1,0,1.7-0.3,2.2-0.8s0.7-1.5,0.7-2.8
			C238,43.7,237,42.5,235.1,42.5z"/>
		<path class="st7" d="M248.9,30.1c0-0.2,0.1-0.4,0.4-0.4h4.3c0.2,0,0.4,0.1,0.4,0.4v17.4c0,0.6,0.3,1.1,0.7,1.4
			c0.4,0.3,1.1,0.5,1.9,0.5h0.8c0.5,0,0.8,0.2,1.1,0.5s0.4,0.9,0.4,1.6c0,1.4-0.5,2.1-1.4,2.1c-0.9,0-1.7-0.1-2.3-0.3
			c-0.7-0.2-1.2-0.7-1.7-1.4c-0.4,0.7-0.9,1.1-1.5,1.4c-0.7,0.2-1.6,0.4-2.7,0.4H246c-0.5,0-0.8-0.1-1.1-0.2c-0.2-0.2-0.4-0.5-0.4-1
			c0-0.3,0-0.6,0.1-0.9c0.1-0.4,0.1-0.7,0.2-1c0.1-0.3,0.2-0.6,0.4-0.8c0.2-0.2,0.4-0.3,0.7-0.3h1.2c0.4,0,0.7-0.1,0.9-0.2
			c0.2-0.1,0.4-0.3,0.5-0.6c0.1-0.3,0.2-0.6,0.2-1c0-0.4,0-0.9,0-1.4V30.1z"/>
		<path class="st7" d="M257.3,53.6c-0.5,0-0.8-0.1-1.1-0.2c-0.2-0.2-0.4-0.5-0.4-1c0-0.3,0-0.6,0.1-0.9c0.1-0.4,0.1-0.7,0.2-1
			c0.1-0.3,0.2-0.6,0.4-0.8c0.2-0.2,0.4-0.3,0.7-0.3h1.2c0.6,0,1-0.1,1.3-0.4c0.3-0.3,0.4-0.8,0.4-1.5V30.1c0-0.2,0.1-0.4,0.4-0.4
			h4.3c0.2,0,0.4,0.1,0.4,0.4v19.1c0,1.5-0.3,2.6-0.9,3.4c-0.6,0.7-1.7,1.1-3.2,1.1H257.3z"/>
		<path class="st7" d="M295,52.8c0,1.5-0.2,2.7-0.7,3.8c-0.5,1-1.1,1.9-1.9,2.6c-0.8,0.7-1.7,1.2-2.8,1.5c-1.1,0.3-2.3,0.5-3.5,0.5
			c-1.2,0-2.4-0.2-3.5-0.5c-1.1-0.3-2-0.8-2.9-1.5c-0.8-0.7-1.5-1.5-1.9-2.6c-0.5-1.1-0.7-2.3-0.7-3.8c0-1.2,0.2-2.4,0.5-3.6
			c0.3-1.2,0.8-2.3,1.4-3.4c0.1-0.1,0.3-0.2,0.5-0.1l3.8,1.2c0.1,0,0.2,0.1,0.2,0.2c0,0.1,0,0.2-0.1,0.3c-0.3,0.7-0.6,1.4-0.9,2.2
			c-0.3,0.8-0.4,1.7-0.4,2.8c0,0.8,0.1,1.5,0.4,2.1c0.2,0.6,0.5,1,0.9,1.4c0.4,0.4,0.8,0.6,1.3,0.8c0.5,0.2,1,0.2,1.5,0.2
			c1.2,0,2.1-0.3,2.8-1c0.7-0.7,1-1.7,1-3.2V30.1c0-0.2,0.1-0.4,0.4-0.4h4.3c0.2,0,0.4,0.1,0.4,0.4v17.4c0,0.6,0.3,1,0.8,1.4
			c0.5,0.3,1.1,0.5,1.9,0.5h0.8c0.5,0,0.8,0.2,1.1,0.5s0.4,0.9,0.4,1.6c0,1.4-0.5,2.1-1.4,2.1c-0.8,0-1.4-0.1-2-0.2
			c-0.6-0.1-1.1-0.4-1.5-0.9V52.8z"/>
		<path class="st7" d="M302.4,39.2c0-0.2,0.1-0.4,0.4-0.4h4.3c0.2,0,0.4,0.1,0.4,0.4v8.3c0,0.6,0.3,1,0.8,1.4
			c0.5,0.3,1.1,0.5,1.9,0.5h0.8c0.5,0,0.8,0.2,1.1,0.5c0.2,0.3,0.4,0.9,0.4,1.6c0,1.4-0.5,2.1-1.4,2.1c-0.9,0-1.7-0.1-2.3-0.3
			c-0.7-0.2-1.2-0.7-1.7-1.4c-0.4,0.8-0.9,1.2-1.7,1.4c-0.7,0.2-1.8,0.3-3,0.3h-3.6c-0.5,0-0.8-0.1-1.1-0.4s-0.4-0.8-0.4-1.6
			s0.1-1.4,0.3-1.7s0.6-0.5,1.1-0.5h2.2c0.7,0,1.2-0.2,1.4-0.6c0.2-0.4,0.3-1.2,0.3-2.2V39.2z M300.2,60.8c-0.2,0-0.4-0.1-0.4-0.4
			V57c0-0.2,0.1-0.4,0.4-0.4h3.5c0.2,0,0.4,0.1,0.4,0.4v3.4c0,0.2-0.1,0.4-0.4,0.4H300.2z M305.6,60.8c-0.2,0-0.4-0.1-0.4-0.4V57
			c0-0.2,0.1-0.4,0.4-0.4h3.5c0.2,0,0.4,0.1,0.4,0.4v3.4c0,0.2-0.1,0.4-0.4,0.4H305.6z"/>
		<path class="st7" d="M312.5,41c0.8-0.8,1.8-1.5,2.8-2s2.3-0.8,3.8-0.8c1.5,0,2.9,0.2,3.9,0.7c1.1,0.4,1.9,1.1,2.6,1.8
			c0.7,0.8,1.2,1.7,1.5,2.8c0.3,1.1,0.5,2.2,0.5,3.5v0.6c0.1,0.6,0.3,1,0.8,1.3c0.4,0.3,1.1,0.5,1.9,0.5h0.8c0.5,0,0.8,0.2,1.1,0.5
			s0.4,0.9,0.4,1.6c0,1.4-0.5,2.1-1.4,2.1c-1,0-1.8-0.1-2.6-0.4c-0.7-0.3-1.3-0.8-1.8-1.7c-0.5,0.8-1.1,1.4-2,1.7
			c-0.9,0.3-1.9,0.4-3,0.4h-10.7c-0.5,0-0.8-0.2-1.1-0.5c-0.2-0.3-0.4-0.8-0.4-1.6s0.1-1.3,0.3-1.7c0.2-0.4,0.6-0.5,1.1-0.5h8.7
			c0.6,0,1,0,1.4-0.1c0.4-0.1,0.6-0.2,0.8-0.4c0.2-0.2,0.3-0.5,0.4-0.8c0.1-0.3,0.1-0.8,0.1-1.3c0-0.6-0.1-1.1-0.2-1.7
			c-0.1-0.5-0.3-1-0.6-1.4c-0.3-0.4-0.6-0.7-1.1-0.9c-0.5-0.2-1-0.3-1.7-0.3c-0.8,0-1.4,0.1-2,0.4c-0.6,0.3-1.1,0.7-1.6,1.1
			c-0.2,0.2-0.3,0.2-0.5,0l-2.1-2.5C312.3,41.4,312.3,41.2,312.5,41z M317.2,60.7c-0.2,0-0.4-0.1-0.4-0.4V57c0-0.2,0.1-0.4,0.4-0.4
			h4.4c0.2,0,0.4,0.1,0.4,0.4v3.4c0,0.2-0.1,0.4-0.4,0.4H317.2z"/>
		<path class="st7" d="M352.1,53.6c-0.9,0-1.7-0.2-2.2-0.5c-0.6-0.3-1-0.8-1.3-1.4c-0.3,0.7-0.8,1.2-1.5,1.5
			c-0.7,0.3-1.6,0.4-2.7,0.4H343c-0.9,0-1.7-0.2-2.2-0.5c-0.6-0.3-1-0.8-1.3-1.4c-0.3,0.8-0.8,1.2-1.5,1.5c-0.7,0.2-1.6,0.4-2.8,0.4
			h-4.2c-0.5,0-0.8-0.1-1.1-0.4c-0.2-0.3-0.4-0.8-0.4-1.6c0-0.8,0.1-1.4,0.3-1.8c0.2-0.4,0.6-0.5,1.1-0.5h2.4c0.7,0,1.1-0.2,1.3-0.5
			c0.2-0.3,0.3-1,0.3-1.9v-5.3c0-0.2,0.1-0.4,0.4-0.4h4.3c0.2,0,0.4,0.1,0.4,0.4v5.8c0,0.7,0.2,1.3,0.7,1.5s1,0.4,1.5,0.4
			c0.4,0,0.8,0,1.1-0.1c0.3-0.1,0.5-0.2,0.6-0.4s0.2-0.4,0.2-0.8c0-0.3,0.1-0.7,0.1-1.2v-5.2c0-0.2,0.1-0.4,0.4-0.4h4.3
			c0.2,0,0.4,0.1,0.4,0.4v5.7c0,0.8,0.2,1.3,0.7,1.6c0.5,0.2,1,0.4,1.6,0.4c0.4,0,0.8,0,1-0.1c0.2-0.1,0.4-0.2,0.5-0.4
			c0.1-0.2,0.2-0.5,0.2-0.8c0-0.3,0-0.7,0-1.2v-7.7c0-0.2,0.1-0.4,0.4-0.4h4.3c0.2,0,0.4,0.1,0.4,0.4v8.3c0,0.6,0.3,1,0.8,1.4
			c0.5,0.3,1.1,0.5,1.9,0.5h0.8c0.5,0,0.8,0.2,1.1,0.5c0.2,0.3,0.4,0.9,0.4,1.6c0,1.4-0.5,2.1-1.4,2.1c-0.9,0-1.7-0.1-2.3-0.3
			c-0.7-0.2-1.2-0.7-1.7-1.4c-0.3,0.7-0.8,1.1-1.4,1.4c-0.6,0.2-1.4,0.4-2.2,0.4H352.1z"/>
		<path class="st7" d="M365.6,39.2c0-0.2,0.1-0.4,0.4-0.4h4.3c0.2,0,0.4,0.1,0.4,0.4v8.3c0,0.6,0.3,1,0.8,1.4
			c0.5,0.3,1.1,0.5,1.9,0.5h0.8c0.5,0,0.8,0.2,1.1,0.5c0.2,0.3,0.4,0.9,0.4,1.6c0,1.4-0.5,2.1-1.4,2.1c-0.9,0-1.7-0.1-2.3-0.3
			c-0.7-0.2-1.2-0.7-1.7-1.4c-0.4,0.8-0.9,1.2-1.7,1.4c-0.7,0.2-1.8,0.3-3,0.3h-3.6c-0.5,0-0.8-0.1-1.1-0.4s-0.4-0.8-0.4-1.6
			s0.1-1.4,0.3-1.7s0.6-0.5,1.1-0.5h2.2c0.7,0,1.2-0.2,1.4-0.6c0.2-0.4,0.3-1.2,0.3-2.2V39.2z M363.6,35.3c-0.2,0-0.4-0.1-0.4-0.4
			v-3.4c0-0.2,0.1-0.4,0.4-0.4h3.5c0.2,0,0.4,0.1,0.4,0.4v3.4c0,0.2-0.1,0.4-0.4,0.4H363.6z M369,35.3c-0.2,0-0.4-0.1-0.4-0.4v-3.4
			c0-0.2,0.1-0.4,0.4-0.4h3.5c0.2,0,0.4,0.1,0.4,0.4v3.4c0,0.2-0.1,0.4-0.4,0.4H369z"/>
		<path class="st7" d="M374,53.6c-0.5,0-0.8-0.1-1.1-0.2c-0.2-0.2-0.4-0.5-0.4-1c0-0.3,0-0.6,0.1-0.9c0.1-0.4,0.1-0.7,0.2-1
			c0.1-0.3,0.2-0.6,0.4-0.8c0.2-0.2,0.4-0.3,0.7-0.3h1.2c0.6,0,1-0.1,1.3-0.4c0.3-0.3,0.4-0.8,0.4-1.5V30.1c0-0.2,0.1-0.4,0.4-0.4
			h4.3c0.2,0,0.4,0.1,0.4,0.4v19.1c0,1.5-0.3,2.6-0.9,3.4c-0.6,0.7-1.7,1.1-3.2,1.1H374z"/>
		<path class="st7" d="M391.1,53.3c0,0.2-0.1,0.4-0.4,0.4h-4.3c-0.2,0-0.4-0.1-0.4-0.4V30.1c0-0.2,0.1-0.4,0.4-0.4h4.3
			c0.2,0,0.4,0.1,0.4,0.4V53.3z"/>
		<path class="st23" d="M129.2,95.8c0.1-0.1,0.3-0.2,0.5-0.1l3.8,1.2c0.1,0,0.2,0.1,0.2,0.2c0,0.1,0,0.2-0.1,0.3
			c-0.3,0.7-0.6,1.4-0.9,2.2c-0.3,0.8-0.4,1.7-0.4,2.8c0,0.8,0.1,1.5,0.4,2.1c0.2,0.6,0.5,1,0.9,1.4c0.4,0.4,0.8,0.6,1.3,0.8
			c0.5,0.2,1,0.2,1.5,0.2c1.2,0,2.1-0.3,2.8-1c0.7-0.7,1-1.7,1-3.2V80.1c0-0.2,0.1-0.4,0.4-0.4h4.3c0.2,0,0.4,0.1,0.4,0.4v22.8
			c0,1.5-0.2,2.7-0.7,3.8c-0.5,1-1.1,1.9-1.9,2.6s-1.7,1.2-2.8,1.5c-1.1,0.3-2.3,0.5-3.5,0.5c-1.2,0-2.4-0.2-3.5-0.5
			c-1.1-0.3-2-0.8-2.9-1.5c-0.8-0.7-1.5-1.5-2-2.6s-0.7-2.3-0.7-3.8c0-1.2,0.2-2.4,0.5-3.6C128.1,97.9,128.6,96.8,129.2,95.8z"/>
		<path class="st23" d="M149.4,80.1c0-0.2,0.1-0.4,0.4-0.4h4.3c0.2,0,0.4,0.1,0.4,0.4v17.4c0,0.7,0.1,1.2,0.4,1.5
			c0.3,0.3,0.7,0.4,1.3,0.4h0.9c0.5,0,0.8,0.2,1.1,0.5c0.2,0.3,0.4,0.9,0.4,1.7c0,0.8-0.1,1.4-0.3,1.7c-0.2,0.3-0.6,0.4-1.1,0.4
			h-3.5c-1.5,0-2.5-0.4-3.2-1.1c-0.6-0.7-0.9-1.8-0.9-3.4V80.1z"/>
		<path class="st23" d="M167.9,103.9c-1.2,0-2.4-0.2-3.4-0.5c-1-0.3-1.9-0.9-2.6-1.7c-0.3,0.4-0.6,0.8-1,1c-0.4,0.3-0.9,0.5-1.3,0.6
			c-0.5,0.1-0.9,0.2-1.4,0.2c-0.4,0-0.8,0.1-1.2,0.1c-0.5,0-0.8-0.2-1.1-0.5c-0.2-0.3-0.4-0.8-0.4-1.6c0-0.8,0.1-1.4,0.3-1.7
			c0.2-0.3,0.6-0.5,1.1-0.5h1c0.5,0,1-0.2,1.5-0.7c0.4-0.4,0.7-1.3,0.7-2.5v-0.7c0-2.3,0.7-4.1,2-5.4s3.2-1.9,5.7-1.9
			c2.4,0,4.3,0.7,5.7,2c1.4,1.3,2.1,3.3,2.1,6c0,0.2,0,0.3,0,0.5c0,0.2,0,0.3,0,0.4c0,0.8,0.3,1.3,0.7,1.7c0.4,0.4,0.9,0.5,1.5,0.5
			h1c0.5,0,0.8,0.2,1.1,0.5c0.2,0.3,0.4,0.9,0.4,1.6c0,1.4-0.5,2.1-1.4,2.1c-0.4,0-0.9,0-1.3-0.1c-0.4,0-0.9-0.1-1.3-0.3
			c-0.4-0.1-0.8-0.3-1.2-0.6c-0.4-0.3-0.7-0.6-1-1.1c-0.7,0.8-1.6,1.4-2.7,1.8C170.3,103.7,169.1,103.9,167.9,103.9z M167.9,92.5
			c-1.9,0-2.9,1.2-2.9,3.5c0,1.3,0.2,2.3,0.7,2.8c0.5,0.5,1.2,0.8,2.2,0.8c1,0,1.7-0.3,2.2-0.8s0.7-1.5,0.7-2.8
			C170.8,93.7,169.8,92.5,167.9,92.5z"/>
		<path class="st23" d="M181.6,99.4c-0.4-0.5-0.7-1-0.9-1.7s-0.4-1.4-0.4-2.3c0-0.9,0.2-1.8,0.5-2.7c0.3-0.9,0.8-1.6,1.4-2.3
			c0.6-0.7,1.4-1.2,2.4-1.6c1-0.4,2.1-0.6,3.5-0.6c1.7,0,3.1,0.3,4.3,0.8c1.1,0.5,2,1.2,2.6,1.9c0.1,0.2,0.1,0.3-0.1,0.5l-2.2,2.6
			c-0.2,0.2-0.4,0.2-0.5,0c-1-1.1-2.2-1.6-3.5-1.6c-0.9,0-1.7,0.3-2.3,0.8c-0.6,0.6-0.9,1.4-0.9,2.5c0,0.5,0.1,1,0.2,1.4
			c0.2,0.4,0.4,0.8,0.6,1.1s0.5,0.5,0.7,0.7c0.2,0.2,0.5,0.3,0.6,0.4h7.7c0.2,0,0.4,0.1,0.4,0.4v3.5c0,0.2-0.1,0.4-0.4,0.4h-16.5
			c-0.5,0-0.8-0.2-1.1-0.5c-0.2-0.3-0.4-0.8-0.4-1.6c0-0.8,0.1-1.4,0.3-1.7s0.6-0.5,1.1-0.5H181.6z"/>
		<path class="st23" d="M209,99.4h3.2c0.6,0,1-0.1,1.3-0.4c0.3-0.3,0.4-0.8,0.4-1.5V80.1c0-0.2,0.1-0.4,0.4-0.4h4.3
			c0.2,0,0.4,0.1,0.4,0.4v19.1c0,1.5-0.3,2.6-0.9,3.4c-0.6,0.7-1.7,1.1-3.2,1.1h-16.3c-0.2,0-0.4-0.1-0.4-0.4v-3.5
			c0-0.2,0.1-0.4,0.4-0.4h5.6V85c0-0.2,0.1-0.4,0.4-0.4h4.3c0.2,0,0.4,0.1,0.4,0.4V99.4z M203.8,80.3c-0.1-0.3-0.3-0.5-0.4-0.8
			c-0.1-0.3-0.1-0.6-0.1-1c0-0.4,0.1-0.8,0.2-1.3c0.2-0.4,0.4-0.8,0.7-1.1c0.3-0.3,0.7-0.6,1.2-0.8c0.5-0.2,1.1-0.3,1.7-0.3
			c0.7,0,1.4,0.1,2,0.4c0.5,0.3,1,0.6,1.3,1c0.1,0.1,0.1,0.2,0,0.3l-1.1,1.1c-0.1,0.1-0.2,0.2-0.4,0c-0.5-0.5-1-0.8-1.7-0.8
			c-0.4,0-0.8,0.1-1.1,0.4c-0.3,0.3-0.4,0.7-0.4,1.1c0,0.4,0.1,0.8,0.3,1.1c0.2,0.3,0.5,0.5,0.7,0.7h3.5c0.1,0,0.2,0.1,0.2,0.2v1.6
			c0,0.2-0.1,0.2-0.2,0.2h-7.8c-0.1,0-0.2-0.1-0.2-0.2v-1.6c0-0.2,0.1-0.2,0.2-0.2H203.8z"/>
		<path class="st23" d="M228.1,103.3c0,0.2-0.1,0.4-0.4,0.4h-4.3c-0.2,0-0.4-0.1-0.4-0.4V80.1c0-0.2,0.1-0.4,0.4-0.4h4.3
			c0.2,0,0.4,0.1,0.4,0.4V103.3z"/>
		<path class="st23" d="M241.5,95.8c0.1-0.1,0.3-0.2,0.5-0.1l3.8,1.2c0.1,0,0.2,0.1,0.2,0.2c0,0.1,0,0.2-0.1,0.3
			c-0.3,0.7-0.6,1.4-0.9,2.2c-0.3,0.8-0.4,1.7-0.4,2.8c0,0.8,0.1,1.5,0.4,2.1c0.2,0.6,0.5,1,0.9,1.4c0.4,0.4,0.8,0.6,1.3,0.8
			c0.5,0.2,1,0.2,1.5,0.2c1.2,0,2.1-0.3,2.8-1c0.7-0.7,1-1.7,1-3.2V88.9c0-0.2,0.1-0.4,0.4-0.4h4.3c0.2,0,0.4,0.1,0.4,0.4v1.1
			c1.1-0.5,2.2-0.9,3.5-1.2c1.3-0.3,2.6-0.5,4-0.5c2.9,0,5,0.7,6.5,2c1.5,1.4,2.2,3.5,2.2,6.4c0,1.4-0.1,2.6-0.4,3.5
			c-0.3,0.9-0.7,1.6-1.3,2.1c-0.6,0.5-1.4,0.9-2.3,1.1c-0.9,0.2-2.1,0.3-3.5,0.3h-6c-0.5,0-1,0-1.4,0c-0.5,0-0.9-0.1-1.4-0.1
			c-0.1,1.4-0.3,2.5-0.8,3.5c-0.5,1-1.1,1.8-1.9,2.4c-0.8,0.6-1.7,1.1-2.8,1.4c-1.1,0.3-2.2,0.4-3.4,0.4c-1.2,0-2.4-0.2-3.5-0.5
			c-1.1-0.3-2-0.8-2.9-1.5c-0.8-0.7-1.5-1.5-2-2.6c-0.5-1.1-0.7-2.3-0.7-3.8c0-1.2,0.2-2.4,0.5-3.6
			C240.4,97.9,240.9,96.8,241.5,95.8z M264,92.5c-1.2,0-2.4,0.2-3.5,0.5c-1.1,0.3-2.2,0.7-3.1,1.1v5.3h6.9c0.9,0,1.6,0,2.1-0.1
			c0.5,0,1-0.2,1.3-0.4c0.3-0.2,0.5-0.5,0.6-0.9c0.1-0.4,0.2-0.9,0.2-1.6c0-0.6-0.1-1.2-0.2-1.7c-0.1-0.5-0.4-0.9-0.7-1.2
			c-0.3-0.3-0.8-0.6-1.4-0.8C265.7,92.6,264.9,92.5,264,92.5z M262,85.3c-0.2,0-0.4-0.1-0.4-0.4v-3.4c0-0.2,0.1-0.4,0.4-0.4h4.4
			c0.2,0,0.4,0.1,0.4,0.4v3.4c0,0.2-0.1,0.4-0.4,0.4H262z"/>
		<path class="st23" d="M279.2,89.2c0-0.2,0.1-0.4,0.4-0.4h4.3c0.2,0,0.4,0.1,0.4,0.4v8.3c0,0.6,0.3,1,0.8,1.4
			c0.5,0.3,1.1,0.5,1.9,0.5h0.8c0.5,0,0.8,0.2,1.1,0.5c0.2,0.3,0.4,0.9,0.4,1.6c0,1.4-0.5,2.1-1.4,2.1c-0.8,0-1.4-0.1-2-0.2
			c-0.6-0.2-1-0.5-1.4-1v0.6c0,2.7-0.5,4.6-1.5,5.9c-1,1.3-2.8,1.9-5.3,1.9h-1.6c-0.2,0-0.4-0.1-0.4-0.4v-3.5c0-0.2,0.1-0.4,0.4-0.4
			h0.8c0.6,0,1.1-0.1,1.5-0.3c0.4-0.2,0.6-0.5,0.8-0.9c0.2-0.4,0.3-0.9,0.3-1.4c0-0.6,0.1-1.2,0.1-1.9V89.2z"/>
		<path class="st23" d="M297.7,88.2c1.4,0,2.7,0.1,3.7,0.4c1,0.3,1.9,0.7,2.6,1.1c0.7,0.5,1.2,1.1,1.5,1.7s0.5,1.4,0.5,2.2
			c0,0.6-0.1,1.2-0.3,1.8c-0.2,0.6-0.5,1.1-0.8,1.6c-0.3,0.5-0.7,0.9-1.1,1.3c-0.4,0.4-0.8,0.7-1.2,1c0.3,0,0.5,0,0.8,0s0.5,0,0.8,0
			h3.7c0.5,0,0.8,0.2,1,0.5c0.2,0.3,0.3,0.8,0.3,1.6c0,0.9-0.1,1.4-0.4,1.7s-0.6,0.4-1,0.4h-5.6c-0.8,0-1.6-0.1-2.4-0.2
			c-0.8-0.2-1.5-0.4-2.2-0.9c-0.8,0.4-1.6,0.7-2.5,0.9c-0.9,0.2-1.6,0.2-2.3,0.2h-5.3c-0.5,0-0.8-0.1-1-0.4
			c-0.2-0.3-0.3-0.8-0.3-1.7c0-0.7,0.1-1.2,0.3-1.6c0.2-0.4,0.5-0.6,1.1-0.6h3.7c0.4,0,0.8,0,1.3,0c0.5,0,0.9-0.1,1.3-0.2
			c-0.3-1-0.9-1.9-1.6-2.7c-0.7-0.8-1.5-1.5-2.4-2.1c-0.2-0.1-0.3-0.3-0.4-0.5c-0.1-0.2-0.1-0.5-0.1-0.8v-2.3c0-0.3,0.2-0.6,0.7-0.9
			c0.5-0.3,1.1-0.6,1.9-0.8s1.7-0.4,2.7-0.6C295.8,88.3,296.7,88.2,297.7,88.2z M298.1,98.5c0.8-0.5,1.4-1,1.9-1.7
			c0.5-0.7,0.8-1.4,0.8-2.1c0-0.7-0.3-1.3-0.8-1.7c-0.5-0.4-1.3-0.5-2.3-0.5c-0.8,0-1.5,0.1-2.1,0.2c-0.6,0.2-1,0.3-1.2,0.4
			c1,0.7,1.8,1.5,2.4,2.4C297.4,96.5,297.9,97.5,298.1,98.5z"/>
		<path class="st23" d="M307.9,103.6c-0.5,0-0.8-0.1-1.1-0.2c-0.2-0.2-0.4-0.5-0.4-1c0-0.3,0-0.6,0.1-0.9c0.1-0.4,0.1-0.7,0.2-1
			c0.1-0.3,0.2-0.6,0.4-0.8c0.2-0.2,0.4-0.3,0.7-0.3h1.2c0.6,0,1-0.1,1.3-0.4c0.3-0.3,0.4-0.8,0.4-1.5V80.1c0-0.2,0.1-0.4,0.4-0.4
			h4.3c0.2,0,0.4,0.1,0.4,0.4v19.1c0,1.5-0.3,2.6-0.9,3.4c-0.6,0.7-1.7,1.1-3.2,1.1H307.9z"/>
	</g>
</g>
<g id="Designed_by_freepik">
</g>
</svg>
