<?xml version="1.0" encoding="utf-8"?>
<!-- Generator: Adobe Illustrator 23.1.0, SVG Export Plug-In . SVG Version: 6.00 Build 0)  -->
<svg version="1.1" id="Capa_1" xmlns="http://www.w3.org/2000/svg" xmlns:xlink="http://www.w3.org/1999/xlink" x="0px" y="0px"
	 viewBox="0 0 385 512" style="enable-background:new 0 0 385 512;" xml:space="preserve">
<style type="text/css">
	.st0{fill:#DC974F;}
	.st1{fill:#FFFFFF;}
	.st2{fill:#FCCCAC;}
	.st3{fill:#A8DAF5;}
	.st4{fill:#9FD5F3;}
	.st5{fill:#396474;}
	.st6{font-family:'DINNextLTW23-Regular';}
	.st7{font-size:65.8608px;}
</style>
<g>
	<path class="st0" d="M48.5,41.1c11.9,0,21.1,2.4,26.9,7.8c4.6,4.4,8,11.1,8,19.7c0,10.8-4.4,19-11.8,24.4
		c-7.2,5.2-16.8,7.6-28.3,7.6H20V98c8-0.6,8.8-1.1,8.8-8.9V52.8c0-7.9-0.8-8.3-8-8.8v-2.8h27.7V41.1z M37.6,88.2
		c0,7.3,3.2,8.9,10.1,8.9c17.4,0,25.8-12.7,25.8-27.1c0-9.4-3.7-17.2-10.6-21.5c-4.3-2.9-9.9-4.3-16.6-4.3c-4.2,0-6.5,0.6-7.5,1.3
		c-0.9,0.6-1.2,1.8-1.2,5.3V88.2z"/>
	<path class="st0" d="M124.8,92.5c-6,7.6-12.7,9.2-15.7,9.2c-11.4,0-18.2-9.2-18.2-19.4c0-6.1,2.2-11.6,5.9-15.6c4-4.4,9.1-7,14-7
		h0.1c7.9,0,14.3,6.8,14.3,14.1c0,1.8-0.5,2.6-2.2,2.9c-1.7,0.3-13.3,1.2-24.1,1.6C99.1,90,106.1,95,112.5,95
		c3.8,0,7.4-1.4,10.8-4.6L124.8,92.5z M108.7,63.1c-4,0-8,3.6-9.3,11.2c4.9,0,9.9,0,15.1-0.2c1.6-0.1,2.2-0.6,2.2-1.8
		C116.6,67.5,113.6,63.1,108.7,63.1L108.7,63.1z"/>
	<path class="st0" d="M155,71.8c-1.8-5.4-5.1-9.2-9.6-9.2c-3.4,0-5.8,2.5-5.8,6.1c0,3.8,3.5,5.9,7.7,7.6c7.1,2.8,11.9,6.1,11.9,12.6
		c0,8.6-7.9,12.8-15.6,12.8c-4.8,0-9.2-1.7-10.8-3c-0.6-1.2-1.5-7.6-1.6-11.3l2.6-0.4c1.8,6.1,5.9,11.6,11.4,11.6
		c3.4,0,6.4-2.6,6.4-6.2c0-3.8-2.4-5.8-7.2-7.9c-5.3-2.5-11.8-5.6-11.8-12.8c0-6.5,5.6-12,14.4-12c4,0,6.5,0.8,8.4,1.6
		c0.8,2,1.9,7.6,2.1,9.8L155,71.8z"/>
	<path class="st0" d="M164.6,100.6v-2.4c5.8-0.6,6.5-1.1,6.5-7.5V72.3c0-5.8-0.3-6.2-5.8-7.1V63c5-0.8,9.7-1.9,13.9-3.5v31.2
		c0,6.3,0.6,6.8,6.6,7.5v2.4H164.6z M169.5,47c0-2.9,2.4-5.1,5.1-5.1c2.8,0,4.9,2.2,4.9,5.1c0,2.6-2.1,4.9-5,4.9
		C171.9,51.9,169.5,49.6,169.5,47z"/>
	<path class="st0" d="M231.5,61.5c-0.7,1.4-2.6,3.9-4.2,4.7l-5.3-0.3c1.6,1.9,2.6,4.8,2.6,8c0,9.8-8.4,14.6-16.6,14.6
		c-1.8,0-3.4-0.3-4.9-0.4c-1.2,0.8-2.4,2.3-2.4,3.4c0,1.8,1.7,3.6,5.9,3.6c3.3,0,6.4-0.2,9.6-0.2c5.6,0,13.6,1.8,13.6,10.9
		c0,9.5-11.1,18.4-23.6,18.4c-10.6,0-16.2-6-16.3-11.2c0-2.2,0.9-3.9,2.4-5.3c2.1-1.9,5.3-4.3,7.5-6.1c-3.4-1-5.8-3-6.9-5
		c-0.9-1.3-1.3-3.1-1.1-4.1c3.8-1.4,6.8-3.8,8.3-5.5c-4.4-1.8-8.2-6.2-8.2-12.3c0-10.5,9.6-15.2,16.9-15.2h0.1c3.1,0,6.1,0.8,9,2.3
		c4.8-0.3,9.6-0.8,13-1.3L231.5,61.5z M209.8,102c-4.3,0-6.4,0.6-8,1.9c-2.3,1.9-3.9,4.3-3.9,6.8c0,4.8,5.1,8.9,12.3,8.9
		c8.4,0,12.9-4.4,12.9-9.9c0-3.2-1.6-5.5-4.3-6.5c-2.4-0.9-5.1-1.1-8.9-1.1h-0.1V102z M208.1,62.5c-3.8,0-7.4,3.6-7.4,10.8
		c0,7.1,3.3,12.1,8.4,12.1c4-0.1,7.4-3.6,7.4-10.8C216.5,67.7,213.3,62.5,208.1,62.5L208.1,62.5z"/>
	<path class="st0" d="M261,100.6v-2.4c5.3-0.6,5.9-1.3,5.9-7.8V75.5c0-6.4-2.6-10.2-8.3-10.2c-3.5,0-6.9,2.2-9.8,4.5V91
		c0,6.3,0.5,6.6,5.9,7.2v2.4h-20.6v-2.4c6.2-0.8,6.7-1.2,6.7-7.3V72.5c0-5.9-0.6-6.3-5.5-7.2V63c4.4-0.7,9.3-1.9,13.6-3.6v7.4
		c1.9-1.4,3.9-2.8,6.3-4.4c2.6-1.7,4.9-2.7,7.7-2.7c7.4,0,12.1,5.2,12.1,14.3v17c0,6.3,0.6,6.5,5.9,7.2v2.4H261z"/>
	<path class="st0" d="M320.2,92.5c-6,7.6-12.7,9.2-15.7,9.2c-11.4,0-18.2-9.2-18.2-19.4c0-6.1,2.2-11.6,5.9-15.6c4-4.4,9.1-7,14-7
		h0.1c7.9,0,14.3,6.8,14.3,14.1c0,1.8-0.5,2.6-2.2,2.9s-13.3,1.2-24.1,1.6C294.5,90,301.5,95,307.9,95c3.8,0,7.4-1.4,10.8-4.6
		L320.2,92.5z M304.1,63.1c-4,0-8,3.6-9.3,11.2c4.9,0,9.9,0,15.1-0.2c1.6-0.1,2.2-0.6,2.2-1.8C312,67.5,309,63.1,304.1,63.1
		L304.1,63.1z"/>
	<path class="st0" d="M340.5,69.5c3.1-5,6.9-9.9,11.2-9.9c3.4,0,5.6,2.4,5.6,4.7c0,2.1-1.3,4-3.3,4.9c-1.1,0.4-1.9,0.3-2.5-0.3
		c-1.4-1.3-2.5-1.9-4.1-1.9c-2.4,0-5.2,2.7-7.2,7.6V91c0,6,0.4,6.6,7.7,7.1v2.4h-22.2v-2.4c5.6-0.6,6.4-1.1,6.4-7.1V72.1
		c0-5.8-0.5-6.2-5.7-6.9v-2.1c4.6-0.8,9-1.8,13.8-3.8v10.2H340.5z"/>
</g>
<g>
	<g>
		<path class="st1" d="M293.6,458.5H74.5c-6.6,0-12-5.4-12-12V174.4c0-6.6,5.4-12,12-12h219.1c6.6,0,12,5.4,12,12v272.1
			C305.6,453.1,300.2,458.5,293.6,458.5z"/>
		<circle class="st0" cx="184" cy="244.2" r="49.4"/>
		<path class="st2" d="M199.7,237.9v3.9c0,8.6-7,15.6-15.6,15.6l0,0l0,0c-8.6,0-15.6-7-15.6-15.6v-3.9c0-8.6,7-15.6,15.6-15.6l0,0
			C192.7,222.3,199.7,229.3,199.7,237.9z"/>
		<path class="st3" d="M184,257.5L184,257.5c-15.3,0-28.3,9.5-33.6,22.9c8.8,8.2,20.6,13.2,33.6,13.2s24.8-5,33.6-13.2
			C212.3,267,199.3,257.5,184,257.5z"/>
		<path class="st0" d="M319.2,253l3.4-6c5.3-9.2,17.1-12.4,26.3-7.1l0,0c9.2,5.3,12.4,17.1,7.1,26.3l-75.8,131.3l-33.4-19.3
			l32.7-56.6L319.2,253z"/>
		<path class="st0" d="M348.9,240L348.9,240c-9.2-5.3-21-2.2-26.3,7.1l-8.9,15.5l33.4,19.3l8.9-15.5
			C361.3,257.1,358.2,245.3,348.9,240z"/>
		<polygon class="st4" points="280.2,397.5 241.6,426 246.9,378.2 		"/>
		<path class="st5" d="M305.6,396.1c-3.3,0-6,2.7-6,6v44.3c0,3.3-2.7,6-6,6H74.5c-3.3,0-6-2.7-6-6v-272c0-3.3,2.7-6,6-6h219.1
			c3.3,0,6,2.7,6,6v65.5c0,3.3,2.7,6,6,6s6-2.7,6-6v-65.5c0-10-8.1-18.1-18.1-18.1h-219c-10,0-18.1,8.1-18.1,18.1v272.1
			c0,10,8.1,18.1,18.1,18.1h219.1c10,0,18.1-8.1,18.1-18.1v-44.3C311.6,398.8,308.9,396.1,305.6,396.1z"/>
		<path class="st5" d="M239.4,244.2c0-30.5-24.8-55.4-55.4-55.4s-55.4,24.8-55.4,55.4c0,15.8,6.7,30.1,17.4,40.2
			c0.2,0.2,0.4,0.4,0.6,0.6c9.9,9,23,14.5,37.3,14.5s27.5-5.5,37.3-14.5c0.2-0.2,0.4-0.4,0.6-0.6
			C232.7,274.4,239.4,260.1,239.4,244.2z M184,200.9c23.9,0,43.3,19.4,43.3,43.3c0,9.6-3.1,18.5-8.5,25.7
			c-4.4-6.6-10.6-11.7-17.7-14.9c2.8-3.7,4.5-8.3,4.5-13.2v-3.9c0-11.9-9.7-21.7-21.7-21.7c-11.9,0-21.7,9.7-21.7,21.7v3.9
			c0,5,1.7,9.6,4.5,13.2c-7.1,3.2-13.3,8.3-17.7,14.9c-5.3-7.2-8.5-16.1-8.5-25.7C140.7,220.3,160.1,200.9,184,200.9z M174.4,241.8
			v-3.9c0-5.3,4.3-9.6,9.6-9.6s9.6,4.3,9.6,9.6v3.9c0,5.3-4.3,9.6-9.6,9.6S174.4,247.1,174.4,241.8z M157.8,278.7
			c5.3-9.4,15.2-15.2,26.2-15.2s20.9,5.9,26.2,15.2c-7.3,5.5-16.3,8.8-26.2,8.8S165.1,284.3,157.8,278.7z"/>
		<path class="st5" d="M216.5,420H184c-3.3,0-6,2.7-6,6s2.7,6,6,6h32.5c3.3,0,6-2.7,6-6S219.8,420,216.5,420z"/>
		<path class="st5" d="M216.5,386.3H131c-3.3,0-6,2.7-6,6s2.7,6,6,6h85.5c3.3,0,6-2.7,6-6S219.8,386.3,216.5,386.3z"/>
		<path class="st5" d="M216.5,352.6H131c-3.3,0-6,2.7-6,6s2.7,6,6,6h85.5c3.3,0,6-2.7,6-6S219.8,352.6,216.5,352.6z"/>
		<path class="st5" d="M109.6,320.6c-1.1-1.1-2.7-1.8-4.3-1.8s-3.1,0.6-4.3,1.8c-1.1,1.1-1.8,2.7-1.8,4.3c0,1.6,0.6,3.1,1.8,4.3
			c1.1,1.1,2.7,1.8,4.3,1.8s3.1-0.6,4.3-1.8c1.1-1.1,1.8-2.7,1.8-4.3C111.4,323.3,110.7,321.7,109.6,320.6z"/>
		<path class="st5" d="M109.6,354.3c-1.1-1.1-2.7-1.8-4.3-1.8s-3.1,0.6-4.3,1.8c-1.1,1.1-1.8,2.7-1.8,4.3s0.6,3.1,1.8,4.3
			c1.1,1.1,2.7,1.8,4.3,1.8s3.1-0.6,4.3-1.8c1.1-1.1,1.8-2.7,1.8-4.3S110.7,355.5,109.6,354.3z"/>
		<path class="st5" d="M105.3,386.3c-1.6,0-3.1,0.6-4.3,1.8c-1.1,1.1-1.8,2.7-1.8,4.3c0,1.6,0.6,3.1,1.8,4.3
			c1.1,1.1,2.7,1.8,4.3,1.8s3.1-0.6,4.3-1.8c1.1-1.1,1.8-2.7,1.8-4.3c0-1.6-0.6-3.1-1.8-4.3C108.5,386.9,106.9,386.3,105.3,386.3z"
			/>
		<path class="st5" d="M216.5,318.9H131c-3.3,0-6,2.7-6,6s2.7,6,6,6h85.5c3.3,0,6-2.7,6-6S219.8,318.9,216.5,318.9z"/>
		<path class="st5" d="M352,234.8c-5.8-3.4-12.7-4.3-19.2-2.5c-6.5,1.7-12,5.9-15.4,11.8l-75.7,131.2c-0.4,0.7-0.7,1.5-0.8,2.3
			l-5.3,47.8c-0.3,2.4,0.9,4.7,3,5.9c0.9,0.5,2,0.8,3,0.8c1.3,0,2.5-0.4,3.6-1.2l38.7-28.5c0.7-0.5,1.2-1.1,1.6-1.8l75.7-131.3
			C368.2,257.3,364,241.8,352,234.8z M251.8,388.1l17.4,10.1L249.1,413L251.8,388.1z M278,389.3L255.1,376l60.8-105.3l22.9,13.2
			L278,389.3z M350.8,263.3l-5.9,10.3L322,260.4l5.9-10.3c1.8-3.1,4.6-5.3,8-6.2s7-0.4,10,1.3c3.1,1.8,5.3,4.6,6.2,8
			C353,256.7,352.5,260.2,350.8,263.3z"/>
	</g>
	<g>
		<text transform="matrix(1 0 0 1 72.1266 215.7701)" class="st0 st6 st7">cv</text>
	</g>
</g>
</svg>
